<?xml version="1.0" encoding="utf-8" standalone="no"?>
<!DOCTYPE svg PUBLIC "-//W3C//DTD SVG 1.1//EN"
  "http://www.w3.org/Graphics/SVG/1.1/DTD/svg11.dtd">
<!-- Created with matplotlib (https://matplotlib.org/) -->
<svg height="648pt" version="1.1" viewBox="0 0 792 648" width="792pt" xmlns="http://www.w3.org/2000/svg" xmlns:xlink="http://www.w3.org/1999/xlink">
 <metadata>
  <rdf:RDF xmlns:cc="http://creativecommons.org/ns#" xmlns:dc="http://purl.org/dc/elements/1.1/" xmlns:rdf="http://www.w3.org/1999/02/22-rdf-syntax-ns#">
   <cc:Work>
    <dc:type rdf:resource="http://purl.org/dc/dcmitype/StillImage"/>
    <dc:date>2021-04-22T21:52:39.073427</dc:date>
    <dc:format>image/svg+xml</dc:format>
    <dc:creator>
     <cc:Agent>
      <dc:title>Matplotlib v3.3.2, https://matplotlib.org/</dc:title>
     </cc:Agent>
    </dc:creator>
   </cc:Work>
  </rdf:RDF>
 </metadata>
 <defs>
  <style type="text/css">*{stroke-linecap:butt;stroke-linejoin:round;}</style>
 </defs>
 <g id="figure_1">
  <g id="patch_1">
   <path d="M 0 648 
L 792 648 
L 792 0 
L 0 0 
z
" style="fill:#ffffff;"/>
  </g>
  <g id="axes_1">
   <g id="patch_2">
    <path d="M 99 576.72 
L 712.8 576.72 
L 712.8 77.76 
L 99 77.76 
z
" style="fill:#ffffff;"/>
   </g>
   <g id="matplotlib.axis_1">
    <g id="xtick_1">
     <g id="line2d_1">
      <defs>
       <path d="M 0 0 
L 0 3.5 
" id="m74b3a83d9f" style="stroke:#000000;stroke-width:0.8;"/>
      </defs>
      <g>
       <use style="stroke:#000000;stroke-width:0.8;" x="126.9" xlink:href="#m74b3a83d9f" y="576.72"/>
      </g>
     </g>
     <g id="text_1">
      <!-- 0 -->
      <g transform="translate(123.71875 591.318438)scale(0.1 -0.1)">
       <defs>
        <path d="M 31.78125 66.40625 
Q 24.171875 66.40625 20.328125 58.90625 
Q 16.5 51.421875 16.5 36.375 
Q 16.5 21.390625 20.328125 13.890625 
Q 24.171875 6.390625 31.78125 6.390625 
Q 39.453125 6.390625 43.28125 13.890625 
Q 47.125 21.390625 47.125 36.375 
Q 47.125 51.421875 43.28125 58.90625 
Q 39.453125 66.40625 31.78125 66.40625 
z
M 31.78125 74.21875 
Q 44.046875 74.21875 50.515625 64.515625 
Q 56.984375 54.828125 56.984375 36.375 
Q 56.984375 17.96875 50.515625 8.265625 
Q 44.046875 -1.421875 31.78125 -1.421875 
Q 19.53125 -1.421875 13.0625 8.265625 
Q 6.59375 17.96875 6.59375 36.375 
Q 6.59375 54.828125 13.0625 64.515625 
Q 19.53125 74.21875 31.78125 74.21875 
z
" id="DejaVuSans-48"/>
       </defs>
       <use xlink:href="#DejaVuSans-48"/>
      </g>
     </g>
    </g>
    <g id="xtick_2">
     <g id="line2d_2">
      <g>
       <use style="stroke:#000000;stroke-width:0.8;" x="240.777551" xlink:href="#m74b3a83d9f" y="576.72"/>
      </g>
     </g>
     <g id="text_2">
      <!-- 10 -->
      <g transform="translate(234.415051 591.318438)scale(0.1 -0.1)">
       <defs>
        <path d="M 12.40625 8.296875 
L 28.515625 8.296875 
L 28.515625 63.921875 
L 10.984375 60.40625 
L 10.984375 69.390625 
L 28.421875 72.90625 
L 38.28125 72.90625 
L 38.28125 8.296875 
L 54.390625 8.296875 
L 54.390625 0 
L 12.40625 0 
z
" id="DejaVuSans-49"/>
       </defs>
       <use xlink:href="#DejaVuSans-49"/>
       <use x="63.623047" xlink:href="#DejaVuSans-48"/>
      </g>
     </g>
    </g>
    <g id="xtick_3">
     <g id="line2d_3">
      <g>
       <use style="stroke:#000000;stroke-width:0.8;" x="354.655102" xlink:href="#m74b3a83d9f" y="576.72"/>
      </g>
     </g>
     <g id="text_3">
      <!-- 20 -->
      <g transform="translate(348.292602 591.318438)scale(0.1 -0.1)">
       <defs>
        <path d="M 19.1875 8.296875 
L 53.609375 8.296875 
L 53.609375 0 
L 7.328125 0 
L 7.328125 8.296875 
Q 12.9375 14.109375 22.625 23.890625 
Q 32.328125 33.6875 34.8125 36.53125 
Q 39.546875 41.84375 41.421875 45.53125 
Q 43.3125 49.21875 43.3125 52.78125 
Q 43.3125 58.59375 39.234375 62.25 
Q 35.15625 65.921875 28.609375 65.921875 
Q 23.96875 65.921875 18.8125 64.3125 
Q 13.671875 62.703125 7.8125 59.421875 
L 7.8125 69.390625 
Q 13.765625 71.78125 18.9375 73 
Q 24.125 74.21875 28.421875 74.21875 
Q 39.75 74.21875 46.484375 68.546875 
Q 53.21875 62.890625 53.21875 53.421875 
Q 53.21875 48.921875 51.53125 44.890625 
Q 49.859375 40.875 45.40625 35.40625 
Q 44.1875 33.984375 37.640625 27.21875 
Q 31.109375 20.453125 19.1875 8.296875 
z
" id="DejaVuSans-50"/>
       </defs>
       <use xlink:href="#DejaVuSans-50"/>
       <use x="63.623047" xlink:href="#DejaVuSans-48"/>
      </g>
     </g>
    </g>
    <g id="xtick_4">
     <g id="line2d_4">
      <g>
       <use style="stroke:#000000;stroke-width:0.8;" x="468.532653" xlink:href="#m74b3a83d9f" y="576.72"/>
      </g>
     </g>
     <g id="text_4">
      <!-- 30 -->
      <g transform="translate(462.170153 591.318438)scale(0.1 -0.1)">
       <defs>
        <path d="M 40.578125 39.3125 
Q 47.65625 37.796875 51.625 33 
Q 55.609375 28.21875 55.609375 21.1875 
Q 55.609375 10.40625 48.1875 4.484375 
Q 40.765625 -1.421875 27.09375 -1.421875 
Q 22.515625 -1.421875 17.65625 -0.515625 
Q 12.796875 0.390625 7.625 2.203125 
L 7.625 11.71875 
Q 11.71875 9.328125 16.59375 8.109375 
Q 21.484375 6.890625 26.8125 6.890625 
Q 36.078125 6.890625 40.9375 10.546875 
Q 45.796875 14.203125 45.796875 21.1875 
Q 45.796875 27.640625 41.28125 31.265625 
Q 36.765625 34.90625 28.71875 34.90625 
L 20.21875 34.90625 
L 20.21875 43.015625 
L 29.109375 43.015625 
Q 36.375 43.015625 40.234375 45.921875 
Q 44.09375 48.828125 44.09375 54.296875 
Q 44.09375 59.90625 40.109375 62.90625 
Q 36.140625 65.921875 28.71875 65.921875 
Q 24.65625 65.921875 20.015625 65.03125 
Q 15.375 64.15625 9.8125 62.3125 
L 9.8125 71.09375 
Q 15.4375 72.65625 20.34375 73.4375 
Q 25.25 74.21875 29.59375 74.21875 
Q 40.828125 74.21875 47.359375 69.109375 
Q 53.90625 64.015625 53.90625 55.328125 
Q 53.90625 49.265625 50.4375 45.09375 
Q 46.96875 40.921875 40.578125 39.3125 
z
" id="DejaVuSans-51"/>
       </defs>
       <use xlink:href="#DejaVuSans-51"/>
       <use x="63.623047" xlink:href="#DejaVuSans-48"/>
      </g>
     </g>
    </g>
    <g id="xtick_5">
     <g id="line2d_5">
      <g>
       <use style="stroke:#000000;stroke-width:0.8;" x="582.410204" xlink:href="#m74b3a83d9f" y="576.72"/>
      </g>
     </g>
     <g id="text_5">
      <!-- 40 -->
      <g transform="translate(576.047704 591.318438)scale(0.1 -0.1)">
       <defs>
        <path d="M 37.796875 64.3125 
L 12.890625 25.390625 
L 37.796875 25.390625 
z
M 35.203125 72.90625 
L 47.609375 72.90625 
L 47.609375 25.390625 
L 58.015625 25.390625 
L 58.015625 17.1875 
L 47.609375 17.1875 
L 47.609375 0 
L 37.796875 0 
L 37.796875 17.1875 
L 4.890625 17.1875 
L 4.890625 26.703125 
z
" id="DejaVuSans-52"/>
       </defs>
       <use xlink:href="#DejaVuSans-52"/>
       <use x="63.623047" xlink:href="#DejaVuSans-48"/>
      </g>
     </g>
    </g>
    <g id="xtick_6">
     <g id="line2d_6">
      <g>
       <use style="stroke:#000000;stroke-width:0.8;" x="696.287755" xlink:href="#m74b3a83d9f" y="576.72"/>
      </g>
     </g>
     <g id="text_6">
      <!-- 50 -->
      <g transform="translate(689.925255 591.318438)scale(0.1 -0.1)">
       <defs>
        <path d="M 10.796875 72.90625 
L 49.515625 72.90625 
L 49.515625 64.59375 
L 19.828125 64.59375 
L 19.828125 46.734375 
Q 21.96875 47.46875 24.109375 47.828125 
Q 26.265625 48.1875 28.421875 48.1875 
Q 40.625 48.1875 47.75 41.5 
Q 54.890625 34.8125 54.890625 23.390625 
Q 54.890625 11.625 47.5625 5.09375 
Q 40.234375 -1.421875 26.90625 -1.421875 
Q 22.3125 -1.421875 17.546875 -0.640625 
Q 12.796875 0.140625 7.71875 1.703125 
L 7.71875 11.625 
Q 12.109375 9.234375 16.796875 8.0625 
Q 21.484375 6.890625 26.703125 6.890625 
Q 35.15625 6.890625 40.078125 11.328125 
Q 45.015625 15.765625 45.015625 23.390625 
Q 45.015625 31 40.078125 35.4375 
Q 35.15625 39.890625 26.703125 39.890625 
Q 22.75 39.890625 18.8125 39.015625 
Q 14.890625 38.140625 10.796875 36.28125 
z
" id="DejaVuSans-53"/>
       </defs>
       <use xlink:href="#DejaVuSans-53"/>
       <use x="63.623047" xlink:href="#DejaVuSans-48"/>
      </g>
     </g>
    </g>
    <g id="text_7">
     <!-- L -->
     <g transform="translate(403.114063 604.996562)scale(0.1 -0.1)">
      <defs>
       <path d="M 9.8125 72.90625 
L 19.671875 72.90625 
L 19.671875 8.296875 
L 55.171875 8.296875 
L 55.171875 0 
L 9.8125 0 
z
" id="DejaVuSans-76"/>
      </defs>
      <use xlink:href="#DejaVuSans-76"/>
     </g>
    </g>
   </g>
   <g id="matplotlib.axis_2">
    <g id="ytick_1">
     <g id="line2d_7">
      <defs>
       <path d="M 0 0 
L -3.5 0 
" id="mfc6d33366e" style="stroke:#000000;stroke-width:0.8;"/>
      </defs>
      <g>
       <use style="stroke:#000000;stroke-width:0.8;" x="99" xlink:href="#mfc6d33366e" y="554.04"/>
      </g>
     </g>
     <g id="text_8">
      <!-- 0 -->
      <g transform="translate(85.6375 557.839219)scale(0.1 -0.1)">
       <use xlink:href="#DejaVuSans-48"/>
      </g>
     </g>
    </g>
    <g id="ytick_2">
     <g id="line2d_8">
      <g>
       <use style="stroke:#000000;stroke-width:0.8;" x="99" xlink:href="#mfc6d33366e" y="481.925338"/>
      </g>
     </g>
     <g id="text_9">
      <!-- 50 -->
      <g transform="translate(79.275 485.724557)scale(0.1 -0.1)">
       <use xlink:href="#DejaVuSans-53"/>
       <use x="63.623047" xlink:href="#DejaVuSans-48"/>
      </g>
     </g>
    </g>
    <g id="ytick_3">
     <g id="line2d_9">
      <g>
       <use style="stroke:#000000;stroke-width:0.8;" x="99" xlink:href="#mfc6d33366e" y="409.810676"/>
      </g>
     </g>
     <g id="text_10">
      <!-- 100 -->
      <g transform="translate(72.9125 413.609895)scale(0.1 -0.1)">
       <use xlink:href="#DejaVuSans-49"/>
       <use x="63.623047" xlink:href="#DejaVuSans-48"/>
       <use x="127.246094" xlink:href="#DejaVuSans-48"/>
      </g>
     </g>
    </g>
    <g id="ytick_4">
     <g id="line2d_10">
      <g>
       <use style="stroke:#000000;stroke-width:0.8;" x="99" xlink:href="#mfc6d33366e" y="337.696014"/>
      </g>
     </g>
     <g id="text_11">
      <!-- 150 -->
      <g transform="translate(72.9125 341.495233)scale(0.1 -0.1)">
       <use xlink:href="#DejaVuSans-49"/>
       <use x="63.623047" xlink:href="#DejaVuSans-53"/>
       <use x="127.246094" xlink:href="#DejaVuSans-48"/>
      </g>
     </g>
    </g>
    <g id="ytick_5">
     <g id="line2d_11">
      <g>
       <use style="stroke:#000000;stroke-width:0.8;" x="99" xlink:href="#mfc6d33366e" y="265.581352"/>
      </g>
     </g>
     <g id="text_12">
      <!-- 200 -->
      <g transform="translate(72.9125 269.380571)scale(0.1 -0.1)">
       <use xlink:href="#DejaVuSans-50"/>
       <use x="63.623047" xlink:href="#DejaVuSans-48"/>
       <use x="127.246094" xlink:href="#DejaVuSans-48"/>
      </g>
     </g>
    </g>
    <g id="ytick_6">
     <g id="line2d_12">
      <g>
       <use style="stroke:#000000;stroke-width:0.8;" x="99" xlink:href="#mfc6d33366e" y="193.46669"/>
      </g>
     </g>
     <g id="text_13">
      <!-- 250 -->
      <g transform="translate(72.9125 197.265909)scale(0.1 -0.1)">
       <use xlink:href="#DejaVuSans-50"/>
       <use x="63.623047" xlink:href="#DejaVuSans-53"/>
       <use x="127.246094" xlink:href="#DejaVuSans-48"/>
      </g>
     </g>
    </g>
    <g id="ytick_7">
     <g id="line2d_13">
      <g>
       <use style="stroke:#000000;stroke-width:0.8;" x="99" xlink:href="#mfc6d33366e" y="121.352028"/>
      </g>
     </g>
     <g id="text_14">
      <!-- 300 -->
      <g transform="translate(72.9125 125.151247)scale(0.1 -0.1)">
       <use xlink:href="#DejaVuSans-51"/>
       <use x="63.623047" xlink:href="#DejaVuSans-48"/>
       <use x="127.246094" xlink:href="#DejaVuSans-48"/>
      </g>
     </g>
    </g>
    <g id="text_15">
     <!-- Radius of gyration $\langle r^2(L) \rangle$ -->
     <g transform="translate(66.8125 389.79)rotate(-90)scale(0.1 -0.1)">
      <defs>
       <path d="M 44.390625 34.1875 
Q 47.5625 33.109375 50.5625 29.59375 
Q 53.5625 26.078125 56.59375 19.921875 
L 66.609375 0 
L 56 0 
L 46.6875 18.703125 
Q 43.0625 26.03125 39.671875 28.421875 
Q 36.28125 30.8125 30.421875 30.8125 
L 19.671875 30.8125 
L 19.671875 0 
L 9.8125 0 
L 9.8125 72.90625 
L 32.078125 72.90625 
Q 44.578125 72.90625 50.734375 67.671875 
Q 56.890625 62.453125 56.890625 51.90625 
Q 56.890625 45.015625 53.6875 40.46875 
Q 50.484375 35.9375 44.390625 34.1875 
z
M 19.671875 64.796875 
L 19.671875 38.921875 
L 32.078125 38.921875 
Q 39.203125 38.921875 42.84375 42.21875 
Q 46.484375 45.515625 46.484375 51.90625 
Q 46.484375 58.296875 42.84375 61.546875 
Q 39.203125 64.796875 32.078125 64.796875 
z
" id="DejaVuSans-82"/>
       <path d="M 34.28125 27.484375 
Q 23.390625 27.484375 19.1875 25 
Q 14.984375 22.515625 14.984375 16.5 
Q 14.984375 11.71875 18.140625 8.90625 
Q 21.296875 6.109375 26.703125 6.109375 
Q 34.1875 6.109375 38.703125 11.40625 
Q 43.21875 16.703125 43.21875 25.484375 
L 43.21875 27.484375 
z
M 52.203125 31.203125 
L 52.203125 0 
L 43.21875 0 
L 43.21875 8.296875 
Q 40.140625 3.328125 35.546875 0.953125 
Q 30.953125 -1.421875 24.3125 -1.421875 
Q 15.921875 -1.421875 10.953125 3.296875 
Q 6 8.015625 6 15.921875 
Q 6 25.140625 12.171875 29.828125 
Q 18.359375 34.515625 30.609375 34.515625 
L 43.21875 34.515625 
L 43.21875 35.40625 
Q 43.21875 41.609375 39.140625 45 
Q 35.0625 48.390625 27.6875 48.390625 
Q 23 48.390625 18.546875 47.265625 
Q 14.109375 46.140625 10.015625 43.890625 
L 10.015625 52.203125 
Q 14.9375 54.109375 19.578125 55.046875 
Q 24.21875 56 28.609375 56 
Q 40.484375 56 46.34375 49.84375 
Q 52.203125 43.703125 52.203125 31.203125 
z
" id="DejaVuSans-97"/>
       <path d="M 45.40625 46.390625 
L 45.40625 75.984375 
L 54.390625 75.984375 
L 54.390625 0 
L 45.40625 0 
L 45.40625 8.203125 
Q 42.578125 3.328125 38.25 0.953125 
Q 33.9375 -1.421875 27.875 -1.421875 
Q 17.96875 -1.421875 11.734375 6.484375 
Q 5.515625 14.40625 5.515625 27.296875 
Q 5.515625 40.1875 11.734375 48.09375 
Q 17.96875 56 27.875 56 
Q 33.9375 56 38.25 53.625 
Q 42.578125 51.265625 45.40625 46.390625 
z
M 14.796875 27.296875 
Q 14.796875 17.390625 18.875 11.75 
Q 22.953125 6.109375 30.078125 6.109375 
Q 37.203125 6.109375 41.296875 11.75 
Q 45.40625 17.390625 45.40625 27.296875 
Q 45.40625 37.203125 41.296875 42.84375 
Q 37.203125 48.484375 30.078125 48.484375 
Q 22.953125 48.484375 18.875 42.84375 
Q 14.796875 37.203125 14.796875 27.296875 
z
" id="DejaVuSans-100"/>
       <path d="M 9.421875 54.6875 
L 18.40625 54.6875 
L 18.40625 0 
L 9.421875 0 
z
M 9.421875 75.984375 
L 18.40625 75.984375 
L 18.40625 64.59375 
L 9.421875 64.59375 
z
" id="DejaVuSans-105"/>
       <path d="M 8.5 21.578125 
L 8.5 54.6875 
L 17.484375 54.6875 
L 17.484375 21.921875 
Q 17.484375 14.15625 20.5 10.265625 
Q 23.53125 6.390625 29.59375 6.390625 
Q 36.859375 6.390625 41.078125 11.03125 
Q 45.3125 15.671875 45.3125 23.6875 
L 45.3125 54.6875 
L 54.296875 54.6875 
L 54.296875 0 
L 45.3125 0 
L 45.3125 8.40625 
Q 42.046875 3.421875 37.71875 1 
Q 33.40625 -1.421875 27.6875 -1.421875 
Q 18.265625 -1.421875 13.375 4.4375 
Q 8.5 10.296875 8.5 21.578125 
z
M 31.109375 56 
z
" id="DejaVuSans-117"/>
       <path d="M 44.28125 53.078125 
L 44.28125 44.578125 
Q 40.484375 46.53125 36.375 47.5 
Q 32.28125 48.484375 27.875 48.484375 
Q 21.1875 48.484375 17.84375 46.4375 
Q 14.5 44.390625 14.5 40.28125 
Q 14.5 37.15625 16.890625 35.375 
Q 19.28125 33.59375 26.515625 31.984375 
L 29.59375 31.296875 
Q 39.15625 29.25 43.1875 25.515625 
Q 47.21875 21.78125 47.21875 15.09375 
Q 47.21875 7.46875 41.1875 3.015625 
Q 35.15625 -1.421875 24.609375 -1.421875 
Q 20.21875 -1.421875 15.453125 -0.5625 
Q 10.6875 0.296875 5.421875 2 
L 5.421875 11.28125 
Q 10.40625 8.6875 15.234375 7.390625 
Q 20.0625 6.109375 24.8125 6.109375 
Q 31.15625 6.109375 34.5625 8.28125 
Q 37.984375 10.453125 37.984375 14.40625 
Q 37.984375 18.0625 35.515625 20.015625 
Q 33.0625 21.96875 24.703125 23.78125 
L 21.578125 24.515625 
Q 13.234375 26.265625 9.515625 29.90625 
Q 5.8125 33.546875 5.8125 39.890625 
Q 5.8125 47.609375 11.28125 51.796875 
Q 16.75 56 26.8125 56 
Q 31.78125 56 36.171875 55.265625 
Q 40.578125 54.546875 44.28125 53.078125 
z
" id="DejaVuSans-115"/>
       <path id="DejaVuSans-32"/>
       <path d="M 30.609375 48.390625 
Q 23.390625 48.390625 19.1875 42.75 
Q 14.984375 37.109375 14.984375 27.296875 
Q 14.984375 17.484375 19.15625 11.84375 
Q 23.34375 6.203125 30.609375 6.203125 
Q 37.796875 6.203125 41.984375 11.859375 
Q 46.1875 17.53125 46.1875 27.296875 
Q 46.1875 37.015625 41.984375 42.703125 
Q 37.796875 48.390625 30.609375 48.390625 
z
M 30.609375 56 
Q 42.328125 56 49.015625 48.375 
Q 55.71875 40.765625 55.71875 27.296875 
Q 55.71875 13.875 49.015625 6.21875 
Q 42.328125 -1.421875 30.609375 -1.421875 
Q 18.84375 -1.421875 12.171875 6.21875 
Q 5.515625 13.875 5.515625 27.296875 
Q 5.515625 40.765625 12.171875 48.375 
Q 18.84375 56 30.609375 56 
z
" id="DejaVuSans-111"/>
       <path d="M 37.109375 75.984375 
L 37.109375 68.5 
L 28.515625 68.5 
Q 23.6875 68.5 21.796875 66.546875 
Q 19.921875 64.59375 19.921875 59.515625 
L 19.921875 54.6875 
L 34.71875 54.6875 
L 34.71875 47.703125 
L 19.921875 47.703125 
L 19.921875 0 
L 10.890625 0 
L 10.890625 47.703125 
L 2.296875 47.703125 
L 2.296875 54.6875 
L 10.890625 54.6875 
L 10.890625 58.5 
Q 10.890625 67.625 15.140625 71.796875 
Q 19.390625 75.984375 28.609375 75.984375 
z
" id="DejaVuSans-102"/>
       <path d="M 45.40625 27.984375 
Q 45.40625 37.75 41.375 43.109375 
Q 37.359375 48.484375 30.078125 48.484375 
Q 22.859375 48.484375 18.828125 43.109375 
Q 14.796875 37.75 14.796875 27.984375 
Q 14.796875 18.265625 18.828125 12.890625 
Q 22.859375 7.515625 30.078125 7.515625 
Q 37.359375 7.515625 41.375 12.890625 
Q 45.40625 18.265625 45.40625 27.984375 
z
M 54.390625 6.78125 
Q 54.390625 -7.171875 48.1875 -13.984375 
Q 42 -20.796875 29.203125 -20.796875 
Q 24.46875 -20.796875 20.265625 -20.09375 
Q 16.0625 -19.390625 12.109375 -17.921875 
L 12.109375 -9.1875 
Q 16.0625 -11.328125 19.921875 -12.34375 
Q 23.78125 -13.375 27.78125 -13.375 
Q 36.625 -13.375 41.015625 -8.765625 
Q 45.40625 -4.15625 45.40625 5.171875 
L 45.40625 9.625 
Q 42.625 4.78125 38.28125 2.390625 
Q 33.9375 0 27.875 0 
Q 17.828125 0 11.671875 7.65625 
Q 5.515625 15.328125 5.515625 27.984375 
Q 5.515625 40.671875 11.671875 48.328125 
Q 17.828125 56 27.875 56 
Q 33.9375 56 38.28125 53.609375 
Q 42.625 51.21875 45.40625 46.390625 
L 45.40625 54.6875 
L 54.390625 54.6875 
z
" id="DejaVuSans-103"/>
       <path d="M 32.171875 -5.078125 
Q 28.375 -14.84375 24.75 -17.8125 
Q 21.140625 -20.796875 15.09375 -20.796875 
L 7.90625 -20.796875 
L 7.90625 -13.28125 
L 13.1875 -13.28125 
Q 16.890625 -13.28125 18.9375 -11.515625 
Q 21 -9.765625 23.484375 -3.21875 
L 25.09375 0.875 
L 2.984375 54.6875 
L 12.5 54.6875 
L 29.59375 11.921875 
L 46.6875 54.6875 
L 56.203125 54.6875 
z
" id="DejaVuSans-121"/>
       <path d="M 41.109375 46.296875 
Q 39.59375 47.171875 37.8125 47.578125 
Q 36.03125 48 33.890625 48 
Q 26.265625 48 22.1875 43.046875 
Q 18.109375 38.09375 18.109375 28.8125 
L 18.109375 0 
L 9.078125 0 
L 9.078125 54.6875 
L 18.109375 54.6875 
L 18.109375 46.1875 
Q 20.953125 51.171875 25.484375 53.578125 
Q 30.03125 56 36.53125 56 
Q 37.453125 56 38.578125 55.875 
Q 39.703125 55.765625 41.0625 55.515625 
z
" id="DejaVuSans-114"/>
       <path d="M 18.3125 70.21875 
L 18.3125 54.6875 
L 36.8125 54.6875 
L 36.8125 47.703125 
L 18.3125 47.703125 
L 18.3125 18.015625 
Q 18.3125 11.328125 20.140625 9.421875 
Q 21.96875 7.515625 27.59375 7.515625 
L 36.8125 7.515625 
L 36.8125 0 
L 27.59375 0 
Q 17.1875 0 13.234375 3.875 
Q 9.28125 7.765625 9.28125 18.015625 
L 9.28125 47.703125 
L 2.6875 47.703125 
L 2.6875 54.6875 
L 9.28125 54.6875 
L 9.28125 70.21875 
z
" id="DejaVuSans-116"/>
       <path d="M 54.890625 33.015625 
L 54.890625 0 
L 45.90625 0 
L 45.90625 32.71875 
Q 45.90625 40.484375 42.875 44.328125 
Q 39.84375 48.1875 33.796875 48.1875 
Q 26.515625 48.1875 22.3125 43.546875 
Q 18.109375 38.921875 18.109375 30.90625 
L 18.109375 0 
L 9.078125 0 
L 9.078125 54.6875 
L 18.109375 54.6875 
L 18.109375 46.1875 
Q 21.34375 51.125 25.703125 53.5625 
Q 30.078125 56 35.796875 56 
Q 45.21875 56 50.046875 50.171875 
Q 54.890625 44.34375 54.890625 33.015625 
z
" id="DejaVuSans-110"/>
       <path d="M 8.9375 31.34375 
L 22.703125 75.875 
L 31 75.875 
L 17.234375 31.34375 
L 31 -13.1875 
L 22.703125 -13.1875 
z
" id="DejaVuSans-10216"/>
       <path d="M 44.578125 46.390625 
Q 43.21875 47.125 41.453125 47.515625 
Q 39.703125 47.90625 37.703125 47.90625 
Q 30.515625 47.90625 25.140625 42.453125 
Q 19.78125 37.015625 18.015625 27.875 
L 12.5 0 
L 3.515625 0 
L 14.203125 54.6875 
L 23.1875 54.6875 
L 21.484375 46.1875 
Q 25.046875 50.921875 30 53.453125 
Q 34.96875 56 40.578125 56 
Q 42.046875 56 43.453125 55.828125 
Q 44.875 55.671875 46.296875 55.28125 
z
" id="DejaVuSans-Oblique-114"/>
       <path d="M 31 75.875 
Q 24.46875 64.65625 21.28125 53.65625 
Q 18.109375 42.671875 18.109375 31.390625 
Q 18.109375 20.125 21.3125 9.0625 
Q 24.515625 -2 31 -13.1875 
L 23.1875 -13.1875 
Q 15.875 -1.703125 12.234375 9.375 
Q 8.59375 20.453125 8.59375 31.390625 
Q 8.59375 42.28125 12.203125 53.3125 
Q 15.828125 64.359375 23.1875 75.875 
z
" id="DejaVuSans-40"/>
       <path d="M 16.796875 72.90625 
L 26.703125 72.90625 
L 14.203125 8.203125 
L 49.703125 8.203125 
L 48.09375 0 
L 2.6875 0 
z
" id="DejaVuSans-Oblique-76"/>
       <path d="M 8.015625 75.875 
L 15.828125 75.875 
Q 23.140625 64.359375 26.78125 53.3125 
Q 30.421875 42.28125 30.421875 31.390625 
Q 30.421875 20.453125 26.78125 9.375 
Q 23.140625 -1.703125 15.828125 -13.1875 
L 8.015625 -13.1875 
Q 14.5 -2 17.703125 9.0625 
Q 20.90625 20.125 20.90625 31.390625 
Q 20.90625 42.671875 17.703125 53.65625 
Q 14.5 64.65625 8.015625 75.875 
z
" id="DejaVuSans-41"/>
       <path d="M 30.078125 31.34375 
L 16.3125 -13.1875 
L 8.015625 -13.1875 
L 21.78125 31.34375 
L 8.015625 75.875 
L 16.3125 75.875 
z
" id="DejaVuSans-10217"/>
      </defs>
      <use transform="translate(0 0.765625)" xlink:href="#DejaVuSans-82"/>
      <use transform="translate(69.482422 0.765625)" xlink:href="#DejaVuSans-97"/>
      <use transform="translate(130.761719 0.765625)" xlink:href="#DejaVuSans-100"/>
      <use transform="translate(194.238281 0.765625)" xlink:href="#DejaVuSans-105"/>
      <use transform="translate(222.021484 0.765625)" xlink:href="#DejaVuSans-117"/>
      <use transform="translate(285.400391 0.765625)" xlink:href="#DejaVuSans-115"/>
      <use transform="translate(337.5 0.765625)" xlink:href="#DejaVuSans-32"/>
      <use transform="translate(369.287109 0.765625)" xlink:href="#DejaVuSans-111"/>
      <use transform="translate(430.46875 0.765625)" xlink:href="#DejaVuSans-102"/>
      <use transform="translate(465.673828 0.765625)" xlink:href="#DejaVuSans-32"/>
      <use transform="translate(497.460938 0.765625)" xlink:href="#DejaVuSans-103"/>
      <use transform="translate(560.9375 0.765625)" xlink:href="#DejaVuSans-121"/>
      <use transform="translate(620.117188 0.765625)" xlink:href="#DejaVuSans-114"/>
      <use transform="translate(661.230469 0.765625)" xlink:href="#DejaVuSans-97"/>
      <use transform="translate(722.509766 0.765625)" xlink:href="#DejaVuSans-116"/>
      <use transform="translate(761.71875 0.765625)" xlink:href="#DejaVuSans-105"/>
      <use transform="translate(789.501953 0.765625)" xlink:href="#DejaVuSans-111"/>
      <use transform="translate(850.683594 0.765625)" xlink:href="#DejaVuSans-110"/>
      <use transform="translate(914.0625 0.765625)" xlink:href="#DejaVuSans-32"/>
      <use transform="translate(945.849609 0.765625)" xlink:href="#DejaVuSans-10216"/>
      <use transform="translate(984.863281 0.765625)" xlink:href="#DejaVuSans-Oblique-114"/>
      <use transform="translate(1030.626458 39.046875)scale(0.7)" xlink:href="#DejaVuSans-50"/>
      <use transform="translate(1077.896966 0.765625)" xlink:href="#DejaVuSans-40"/>
      <use transform="translate(1116.910638 0.765625)" xlink:href="#DejaVuSans-Oblique-76"/>
      <use transform="translate(1172.623529 0.765625)" xlink:href="#DejaVuSans-41"/>
      <use transform="translate(1211.637201 0.765625)" xlink:href="#DejaVuSans-10217"/>
     </g>
    </g>
   </g>
   <g id="LineCollection_1">
    <path clip-path="url(#p9c25eb33d2)" d="M 126.9 554.04 
L 126.9 554.04 
" style="fill:none;stroke:#ff0000;stroke-opacity:0.5;stroke-width:1.5;"/>
    <path clip-path="url(#p9c25eb33d2)" d="M 138.287755 552.597707 
L 138.287755 552.597707 
" style="fill:none;stroke:#ff0000;stroke-opacity:0.5;stroke-width:1.5;"/>
    <path clip-path="url(#p9c25eb33d2)" d="M 149.67551 550.254967 
L 149.67551 550.16934 
" style="fill:none;stroke:#ff0000;stroke-opacity:0.5;stroke-width:1.5;"/>
    <path clip-path="url(#p9c25eb33d2)" d="M 161.063265 547.444121 
L 161.063265 547.239859 
" style="fill:none;stroke:#ff0000;stroke-opacity:0.5;stroke-width:1.5;"/>
    <path clip-path="url(#p9c25eb33d2)" d="M 172.45102 544.118315 
L 172.45102 543.798654 
" style="fill:none;stroke:#ff0000;stroke-opacity:0.5;stroke-width:1.5;"/>
    <path clip-path="url(#p9c25eb33d2)" d="M 183.838776 540.666371 
L 183.838776 540.173741 
" style="fill:none;stroke:#ff0000;stroke-opacity:0.5;stroke-width:1.5;"/>
    <path clip-path="url(#p9c25eb33d2)" d="M 195.226531 536.154706 
L 195.226531 535.507038 
" style="fill:none;stroke:#ff0000;stroke-opacity:0.5;stroke-width:1.5;"/>
    <path clip-path="url(#p9c25eb33d2)" d="M 206.614286 531.616624 
L 206.614286 530.767701 
" style="fill:none;stroke:#ff0000;stroke-opacity:0.5;stroke-width:1.5;"/>
    <path clip-path="url(#p9c25eb33d2)" d="M 218.002041 526.992322 
L 218.002041 525.868005 
" style="fill:none;stroke:#ff0000;stroke-opacity:0.5;stroke-width:1.5;"/>
    <path clip-path="url(#p9c25eb33d2)" d="M 229.389796 523.330607 
L 229.389796 522.001909 
" style="fill:none;stroke:#ff0000;stroke-opacity:0.5;stroke-width:1.5;"/>
    <path clip-path="url(#p9c25eb33d2)" d="M 240.777551 517.146771 
L 240.777551 515.528548 
" style="fill:none;stroke:#ff0000;stroke-opacity:0.5;stroke-width:1.5;"/>
    <path clip-path="url(#p9c25eb33d2)" d="M 252.165306 511.707331 
L 252.165306 509.717027 
" style="fill:none;stroke:#ff0000;stroke-opacity:0.5;stroke-width:1.5;"/>
    <path clip-path="url(#p9c25eb33d2)" d="M 263.553061 506.09059 
L 263.553061 503.668862 
" style="fill:none;stroke:#ff0000;stroke-opacity:0.5;stroke-width:1.5;"/>
    <path clip-path="url(#p9c25eb33d2)" d="M 274.940816 501.179268 
L 274.940816 498.514948 
" style="fill:none;stroke:#ff0000;stroke-opacity:0.5;stroke-width:1.5;"/>
    <path clip-path="url(#p9c25eb33d2)" d="M 286.328571 494.75593 
L 286.328571 491.709441 
" style="fill:none;stroke:#ff0000;stroke-opacity:0.5;stroke-width:1.5;"/>
    <path clip-path="url(#p9c25eb33d2)" d="M 297.716327 486.410611 
L 297.716327 482.638896 
" style="fill:none;stroke:#ff0000;stroke-opacity:0.5;stroke-width:1.5;"/>
    <path clip-path="url(#p9c25eb33d2)" d="M 309.104082 483.321367 
L 309.104082 479.261968 
" style="fill:none;stroke:#ff0000;stroke-opacity:0.5;stroke-width:1.5;"/>
    <path clip-path="url(#p9c25eb33d2)" d="M 320.491837 473.337421 
L 320.491837 468.665101 
" style="fill:none;stroke:#ff0000;stroke-opacity:0.5;stroke-width:1.5;"/>
    <path clip-path="url(#p9c25eb33d2)" d="M 331.879592 466.31028 
L 331.879592 460.416087 
" style="fill:none;stroke:#ff0000;stroke-opacity:0.5;stroke-width:1.5;"/>
    <path clip-path="url(#p9c25eb33d2)" d="M 343.267347 459.430979 
L 343.267347 452.742239 
" style="fill:none;stroke:#ff0000;stroke-opacity:0.5;stroke-width:1.5;"/>
    <path clip-path="url(#p9c25eb33d2)" d="M 354.655102 452.493132 
L 354.655102 446.609573 
" style="fill:none;stroke:#ff0000;stroke-opacity:0.5;stroke-width:1.5;"/>
    <path clip-path="url(#p9c25eb33d2)" d="M 366.042857 449.153217 
L 366.042857 441.350693 
" style="fill:none;stroke:#ff0000;stroke-opacity:0.5;stroke-width:1.5;"/>
    <path clip-path="url(#p9c25eb33d2)" d="M 377.430612 438.02331 
L 377.430612 429.612549 
" style="fill:none;stroke:#ff0000;stroke-opacity:0.5;stroke-width:1.5;"/>
    <path clip-path="url(#p9c25eb33d2)" d="M 388.818367 425.949995 
L 388.818367 417.589308 
" style="fill:none;stroke:#ff0000;stroke-opacity:0.5;stroke-width:1.5;"/>
    <path clip-path="url(#p9c25eb33d2)" d="M 400.206122 428.122968 
L 400.206122 418.604574 
" style="fill:none;stroke:#ff0000;stroke-opacity:0.5;stroke-width:1.5;"/>
    <path clip-path="url(#p9c25eb33d2)" d="M 411.593878 411.105564 
L 411.593878 398.8681 
" style="fill:none;stroke:#ff0000;stroke-opacity:0.5;stroke-width:1.5;"/>
    <path clip-path="url(#p9c25eb33d2)" d="M 422.981633 403.414212 
L 422.981633 392.158622 
" style="fill:none;stroke:#ff0000;stroke-opacity:0.5;stroke-width:1.5;"/>
    <path clip-path="url(#p9c25eb33d2)" d="M 434.369388 388.262903 
L 434.369388 373.696917 
" style="fill:none;stroke:#ff0000;stroke-opacity:0.5;stroke-width:1.5;"/>
    <path clip-path="url(#p9c25eb33d2)" d="M 445.757143 402.470044 
L 445.757143 386.540983 
" style="fill:none;stroke:#ff0000;stroke-opacity:0.5;stroke-width:1.5;"/>
    <path clip-path="url(#p9c25eb33d2)" d="M 457.144898 371.200558 
L 457.144898 348.878188 
" style="fill:none;stroke:#ff0000;stroke-opacity:0.5;stroke-width:1.5;"/>
    <path clip-path="url(#p9c25eb33d2)" d="M 468.532653 369.434899 
L 468.532653 354.355634 
" style="fill:none;stroke:#ff0000;stroke-opacity:0.5;stroke-width:1.5;"/>
    <path clip-path="url(#p9c25eb33d2)" d="M 479.920408 349.897939 
L 479.920408 328.243758 
" style="fill:none;stroke:#ff0000;stroke-opacity:0.5;stroke-width:1.5;"/>
    <path clip-path="url(#p9c25eb33d2)" d="M 491.308163 339.146303 
L 491.308163 314.177098 
" style="fill:none;stroke:#ff0000;stroke-opacity:0.5;stroke-width:1.5;"/>
    <path clip-path="url(#p9c25eb33d2)" d="M 502.695918 357.670229 
L 502.695918 339.088229 
" style="fill:none;stroke:#ff0000;stroke-opacity:0.5;stroke-width:1.5;"/>
    <path clip-path="url(#p9c25eb33d2)" d="M 514.083673 331.097204 
L 514.083673 304.105318 
" style="fill:none;stroke:#ff0000;stroke-opacity:0.5;stroke-width:1.5;"/>
    <path clip-path="url(#p9c25eb33d2)" d="M 525.471429 321.952962 
L 525.471429 299.122313 
" style="fill:none;stroke:#ff0000;stroke-opacity:0.5;stroke-width:1.5;"/>
    <path clip-path="url(#p9c25eb33d2)" d="M 536.859184 305.155601 
L 536.859184 278.868383 
" style="fill:none;stroke:#ff0000;stroke-opacity:0.5;stroke-width:1.5;"/>
    <path clip-path="url(#p9c25eb33d2)" d="M 548.246939 297.429233 
L 548.246939 269.003275 
" style="fill:none;stroke:#ff0000;stroke-opacity:0.5;stroke-width:1.5;"/>
    <path clip-path="url(#p9c25eb33d2)" d="M 559.634694 278.420388 
L 559.634694 235.111318 
" style="fill:none;stroke:#ff0000;stroke-opacity:0.5;stroke-width:1.5;"/>
    <path clip-path="url(#p9c25eb33d2)" d="M 571.022449 293.84572 
L 571.022449 268.751713 
" style="fill:none;stroke:#ff0000;stroke-opacity:0.5;stroke-width:1.5;"/>
    <path clip-path="url(#p9c25eb33d2)" d="M 582.410204 286.675023 
L 582.410204 255.828631 
" style="fill:none;stroke:#ff0000;stroke-opacity:0.5;stroke-width:1.5;"/>
    <path clip-path="url(#p9c25eb33d2)" d="M 593.797959 258.409778 
L 593.797959 222.828077 
" style="fill:none;stroke:#ff0000;stroke-opacity:0.5;stroke-width:1.5;"/>
    <path clip-path="url(#p9c25eb33d2)" d="M 605.185714 278.085255 
L 605.185714 241.696675 
" style="fill:none;stroke:#ff0000;stroke-opacity:0.5;stroke-width:1.5;"/>
    <path clip-path="url(#p9c25eb33d2)" d="M 616.573469 236.435596 
L 616.573469 192.915183 
" style="fill:none;stroke:#ff0000;stroke-opacity:0.5;stroke-width:1.5;"/>
    <path clip-path="url(#p9c25eb33d2)" d="M 627.961224 205.500402 
L 627.961224 149.230724 
" style="fill:none;stroke:#ff0000;stroke-opacity:0.5;stroke-width:1.5;"/>
    <path clip-path="url(#p9c25eb33d2)" d="M 639.34898 228.371071 
L 639.34898 160.475248 
" style="fill:none;stroke:#ff0000;stroke-opacity:0.5;stroke-width:1.5;"/>
    <path clip-path="url(#p9c25eb33d2)" d="M 650.736735 213.547768 
L 650.736735 146.682765 
" style="fill:none;stroke:#ff0000;stroke-opacity:0.5;stroke-width:1.5;"/>
    <path clip-path="url(#p9c25eb33d2)" d="M 662.12449 203.009541 
L 662.12449 147.916448 
" style="fill:none;stroke:#ff0000;stroke-opacity:0.5;stroke-width:1.5;"/>
    <path clip-path="url(#p9c25eb33d2)" d="M 673.512245 219.370806 
L 673.512245 162.57017 
" style="fill:none;stroke:#ff0000;stroke-opacity:0.5;stroke-width:1.5;"/>
    <path clip-path="url(#p9c25eb33d2)" d="M 684.9 202.881917 
L 684.9 122.951258 
" style="fill:none;stroke:#ff0000;stroke-opacity:0.5;stroke-width:1.5;"/>
   </g>
   <g id="LineCollection_2">
    <path clip-path="url(#p9c25eb33d2)" d="M 126.9 554.04 
L 126.9 554.04 
" style="fill:none;stroke:#0000ff;stroke-opacity:0.5;stroke-width:1.5;"/>
    <path clip-path="url(#p9c25eb33d2)" d="M 138.287755 552.597707 
L 138.287755 552.597707 
" style="fill:none;stroke:#0000ff;stroke-opacity:0.5;stroke-width:1.5;"/>
    <path clip-path="url(#p9c25eb33d2)" d="M 149.67551 550.24385 
L 149.67551 550.183342 
" style="fill:none;stroke:#0000ff;stroke-opacity:0.5;stroke-width:1.5;"/>
    <path clip-path="url(#p9c25eb33d2)" d="M 161.063265 547.513374 
L 161.063265 547.366758 
" style="fill:none;stroke:#0000ff;stroke-opacity:0.5;stroke-width:1.5;"/>
    <path clip-path="url(#p9c25eb33d2)" d="M 172.45102 543.812956 
L 172.45102 543.590221 
" style="fill:none;stroke:#0000ff;stroke-opacity:0.5;stroke-width:1.5;"/>
    <path clip-path="url(#p9c25eb33d2)" d="M 183.838776 540.350837 
L 183.838776 540.016665 
" style="fill:none;stroke:#0000ff;stroke-opacity:0.5;stroke-width:1.5;"/>
    <path clip-path="url(#p9c25eb33d2)" d="M 195.226531 536.211081 
L 195.226531 535.751367 
" style="fill:none;stroke:#0000ff;stroke-opacity:0.5;stroke-width:1.5;"/>
    <path clip-path="url(#p9c25eb33d2)" d="M 206.614286 531.742835 
L 206.614286 531.130748 
" style="fill:none;stroke:#0000ff;stroke-opacity:0.5;stroke-width:1.5;"/>
    <path clip-path="url(#p9c25eb33d2)" d="M 218.002041 526.61754 
L 218.002041 525.828227 
" style="fill:none;stroke:#0000ff;stroke-opacity:0.5;stroke-width:1.5;"/>
    <path clip-path="url(#p9c25eb33d2)" d="M 229.389796 522.457729 
L 229.389796 521.468255 
" style="fill:none;stroke:#0000ff;stroke-opacity:0.5;stroke-width:1.5;"/>
    <path clip-path="url(#p9c25eb33d2)" d="M 240.777551 517.559822 
L 240.777551 516.393286 
" style="fill:none;stroke:#0000ff;stroke-opacity:0.5;stroke-width:1.5;"/>
    <path clip-path="url(#p9c25eb33d2)" d="M 252.165306 512.775171 
L 252.165306 511.376323 
" style="fill:none;stroke:#0000ff;stroke-opacity:0.5;stroke-width:1.5;"/>
    <path clip-path="url(#p9c25eb33d2)" d="M 263.553061 505.700433 
L 263.553061 504.066659 
" style="fill:none;stroke:#0000ff;stroke-opacity:0.5;stroke-width:1.5;"/>
    <path clip-path="url(#p9c25eb33d2)" d="M 274.940816 499.221524 
L 274.940816 497.299809 
" style="fill:none;stroke:#0000ff;stroke-opacity:0.5;stroke-width:1.5;"/>
    <path clip-path="url(#p9c25eb33d2)" d="M 286.328571 492.801163 
L 286.328571 490.594128 
" style="fill:none;stroke:#0000ff;stroke-opacity:0.5;stroke-width:1.5;"/>
    <path clip-path="url(#p9c25eb33d2)" d="M 297.716327 487.476184 
L 297.716327 485.007567 
" style="fill:none;stroke:#0000ff;stroke-opacity:0.5;stroke-width:1.5;"/>
    <path clip-path="url(#p9c25eb33d2)" d="M 309.104082 479.929654 
L 309.104082 476.958497 
" style="fill:none;stroke:#0000ff;stroke-opacity:0.5;stroke-width:1.5;"/>
    <path clip-path="url(#p9c25eb33d2)" d="M 320.491837 475.084566 
L 320.491837 471.810243 
" style="fill:none;stroke:#0000ff;stroke-opacity:0.5;stroke-width:1.5;"/>
    <path clip-path="url(#p9c25eb33d2)" d="M 331.879592 466.325741 
L 331.879592 462.326722 
" style="fill:none;stroke:#0000ff;stroke-opacity:0.5;stroke-width:1.5;"/>
    <path clip-path="url(#p9c25eb33d2)" d="M 343.267347 461.466118 
L 343.267347 457.183948 
" style="fill:none;stroke:#0000ff;stroke-opacity:0.5;stroke-width:1.5;"/>
    <path clip-path="url(#p9c25eb33d2)" d="M 354.655102 458.100938 
L 354.655102 453.532624 
" style="fill:none;stroke:#0000ff;stroke-opacity:0.5;stroke-width:1.5;"/>
    <path clip-path="url(#p9c25eb33d2)" d="M 366.042857 445.331948 
L 366.042857 439.769687 
" style="fill:none;stroke:#0000ff;stroke-opacity:0.5;stroke-width:1.5;"/>
    <path clip-path="url(#p9c25eb33d2)" d="M 377.430612 431.13463 
L 377.430612 424.7161 
" style="fill:none;stroke:#0000ff;stroke-opacity:0.5;stroke-width:1.5;"/>
    <path clip-path="url(#p9c25eb33d2)" d="M 388.818367 429.562711 
L 388.818367 423.21853 
" style="fill:none;stroke:#0000ff;stroke-opacity:0.5;stroke-width:1.5;"/>
    <path clip-path="url(#p9c25eb33d2)" d="M 400.206122 424.352435 
L 400.206122 416.558239 
" style="fill:none;stroke:#0000ff;stroke-opacity:0.5;stroke-width:1.5;"/>
    <path clip-path="url(#p9c25eb33d2)" d="M 411.593878 411.187699 
L 411.593878 403.034941 
" style="fill:none;stroke:#0000ff;stroke-opacity:0.5;stroke-width:1.5;"/>
    <path clip-path="url(#p9c25eb33d2)" d="M 422.981633 402.672277 
L 422.981633 393.965388 
" style="fill:none;stroke:#0000ff;stroke-opacity:0.5;stroke-width:1.5;"/>
    <path clip-path="url(#p9c25eb33d2)" d="M 434.369388 393.658444 
L 434.369388 384.977469 
" style="fill:none;stroke:#0000ff;stroke-opacity:0.5;stroke-width:1.5;"/>
    <path clip-path="url(#p9c25eb33d2)" d="M 445.757143 387.751934 
L 445.757143 376.953875 
" style="fill:none;stroke:#0000ff;stroke-opacity:0.5;stroke-width:1.5;"/>
    <path clip-path="url(#p9c25eb33d2)" d="M 457.144898 386.213004 
L 457.144898 373.429041 
" style="fill:none;stroke:#0000ff;stroke-opacity:0.5;stroke-width:1.5;"/>
    <path clip-path="url(#p9c25eb33d2)" d="M 468.532653 367.997797 
L 468.532653 355.210137 
" style="fill:none;stroke:#0000ff;stroke-opacity:0.5;stroke-width:1.5;"/>
    <path clip-path="url(#p9c25eb33d2)" d="M 479.920408 364.277787 
L 479.920408 350.527391 
" style="fill:none;stroke:#0000ff;stroke-opacity:0.5;stroke-width:1.5;"/>
    <path clip-path="url(#p9c25eb33d2)" d="M 491.308163 356.157715 
L 491.308163 341.748061 
" style="fill:none;stroke:#0000ff;stroke-opacity:0.5;stroke-width:1.5;"/>
    <path clip-path="url(#p9c25eb33d2)" d="M 502.695918 345.186082 
L 502.695918 328.113602 
" style="fill:none;stroke:#0000ff;stroke-opacity:0.5;stroke-width:1.5;"/>
    <path clip-path="url(#p9c25eb33d2)" d="M 514.083673 315.639999 
L 514.083673 291.541175 
" style="fill:none;stroke:#0000ff;stroke-opacity:0.5;stroke-width:1.5;"/>
    <path clip-path="url(#p9c25eb33d2)" d="M 525.471429 337.632908 
L 525.471429 318.399084 
" style="fill:none;stroke:#0000ff;stroke-opacity:0.5;stroke-width:1.5;"/>
    <path clip-path="url(#p9c25eb33d2)" d="M 536.859184 304.096417 
L 536.859184 284.455654 
" style="fill:none;stroke:#0000ff;stroke-opacity:0.5;stroke-width:1.5;"/>
    <path clip-path="url(#p9c25eb33d2)" d="M 548.246939 309.756816 
L 548.246939 282.265544 
" style="fill:none;stroke:#0000ff;stroke-opacity:0.5;stroke-width:1.5;"/>
    <path clip-path="url(#p9c25eb33d2)" d="M 559.634694 290.843827 
L 559.634694 269.506938 
" style="fill:none;stroke:#0000ff;stroke-opacity:0.5;stroke-width:1.5;"/>
    <path clip-path="url(#p9c25eb33d2)" d="M 571.022449 285.303755 
L 571.022449 261.943447 
" style="fill:none;stroke:#0000ff;stroke-opacity:0.5;stroke-width:1.5;"/>
    <path clip-path="url(#p9c25eb33d2)" d="M 582.410204 272.168951 
L 582.410204 249.14531 
" style="fill:none;stroke:#0000ff;stroke-opacity:0.5;stroke-width:1.5;"/>
    <path clip-path="url(#p9c25eb33d2)" d="M 593.797959 267.13873 
L 593.797959 231.549117 
" style="fill:none;stroke:#0000ff;stroke-opacity:0.5;stroke-width:1.5;"/>
    <path clip-path="url(#p9c25eb33d2)" d="M 605.185714 258.301045 
L 605.185714 233.313172 
" style="fill:none;stroke:#0000ff;stroke-opacity:0.5;stroke-width:1.5;"/>
    <path clip-path="url(#p9c25eb33d2)" d="M 616.573469 236.392347 
L 616.573469 202.928649 
" style="fill:none;stroke:#0000ff;stroke-opacity:0.5;stroke-width:1.5;"/>
    <path clip-path="url(#p9c25eb33d2)" d="M 627.961224 216.044405 
L 627.961224 175.800104 
" style="fill:none;stroke:#0000ff;stroke-opacity:0.5;stroke-width:1.5;"/>
    <path clip-path="url(#p9c25eb33d2)" d="M 639.34898 238.992338 
L 639.34898 209.414491 
" style="fill:none;stroke:#0000ff;stroke-opacity:0.5;stroke-width:1.5;"/>
    <path clip-path="url(#p9c25eb33d2)" d="M 650.736735 214.324962 
L 650.736735 149.460683 
" style="fill:none;stroke:#0000ff;stroke-opacity:0.5;stroke-width:1.5;"/>
    <path clip-path="url(#p9c25eb33d2)" d="M 662.12449 162.793216 
L 662.12449 100.44 
" style="fill:none;stroke:#0000ff;stroke-opacity:0.5;stroke-width:1.5;"/>
    <path clip-path="url(#p9c25eb33d2)" d="M 673.512245 212.693734 
L 673.512245 161.982411 
" style="fill:none;stroke:#0000ff;stroke-opacity:0.5;stroke-width:1.5;"/>
    <path clip-path="url(#p9c25eb33d2)" d="M 684.9 224.788602 
L 684.9 189.589508 
" style="fill:none;stroke:#0000ff;stroke-opacity:0.5;stroke-width:1.5;"/>
   </g>
   <g id="LineCollection_3">
    <path clip-path="url(#p9c25eb33d2)" d="M 126.9 554.04 
L 126.9 554.04 
" style="fill:none;stroke:#008000;stroke-opacity:0.5;stroke-width:1.5;"/>
    <path clip-path="url(#p9c25eb33d2)" d="M 138.287755 552.597707 
L 138.287755 552.597707 
" style="fill:none;stroke:#008000;stroke-opacity:0.5;stroke-width:1.5;"/>
    <path clip-path="url(#p9c25eb33d2)" d="M 149.67551 550.191961 
L 149.67551 550.141963 
" style="fill:none;stroke:#008000;stroke-opacity:0.5;stroke-width:1.5;"/>
    <path clip-path="url(#p9c25eb33d2)" d="M 161.063265 547.541075 
L 161.063265 547.423672 
" style="fill:none;stroke:#008000;stroke-opacity:0.5;stroke-width:1.5;"/>
    <path clip-path="url(#p9c25eb33d2)" d="M 172.45102 544.003793 
L 172.45102 543.817067 
" style="fill:none;stroke:#008000;stroke-opacity:0.5;stroke-width:1.5;"/>
    <path clip-path="url(#p9c25eb33d2)" d="M 183.838776 540.34479 
L 183.838776 540.05901 
" style="fill:none;stroke:#008000;stroke-opacity:0.5;stroke-width:1.5;"/>
    <path clip-path="url(#p9c25eb33d2)" d="M 195.226531 535.929329 
L 195.226531 535.549787 
" style="fill:none;stroke:#008000;stroke-opacity:0.5;stroke-width:1.5;"/>
    <path clip-path="url(#p9c25eb33d2)" d="M 206.614286 532.163171 
L 206.614286 531.655705 
" style="fill:none;stroke:#008000;stroke-opacity:0.5;stroke-width:1.5;"/>
    <path clip-path="url(#p9c25eb33d2)" d="M 218.002041 526.9034 
L 218.002041 526.269567 
" style="fill:none;stroke:#008000;stroke-opacity:0.5;stroke-width:1.5;"/>
    <path clip-path="url(#p9c25eb33d2)" d="M 229.389796 522.16226 
L 229.389796 521.366985 
" style="fill:none;stroke:#008000;stroke-opacity:0.5;stroke-width:1.5;"/>
    <path clip-path="url(#p9c25eb33d2)" d="M 240.777551 516.488158 
L 240.777551 515.523722 
" style="fill:none;stroke:#008000;stroke-opacity:0.5;stroke-width:1.5;"/>
    <path clip-path="url(#p9c25eb33d2)" d="M 252.165306 511.909863 
L 252.165306 510.722005 
" style="fill:none;stroke:#008000;stroke-opacity:0.5;stroke-width:1.5;"/>
    <path clip-path="url(#p9c25eb33d2)" d="M 263.553061 505.589617 
L 263.553061 504.208948 
" style="fill:none;stroke:#008000;stroke-opacity:0.5;stroke-width:1.5;"/>
    <path clip-path="url(#p9c25eb33d2)" d="M 274.940816 498.853619 
L 274.940816 497.247088 
" style="fill:none;stroke:#008000;stroke-opacity:0.5;stroke-width:1.5;"/>
    <path clip-path="url(#p9c25eb33d2)" d="M 286.328571 493.029384 
L 286.328571 491.154652 
" style="fill:none;stroke:#008000;stroke-opacity:0.5;stroke-width:1.5;"/>
    <path clip-path="url(#p9c25eb33d2)" d="M 297.716327 485.539946 
L 297.716327 483.378797 
" style="fill:none;stroke:#008000;stroke-opacity:0.5;stroke-width:1.5;"/>
    <path clip-path="url(#p9c25eb33d2)" d="M 309.104082 481.121364 
L 309.104082 478.718448 
" style="fill:none;stroke:#008000;stroke-opacity:0.5;stroke-width:1.5;"/>
    <path clip-path="url(#p9c25eb33d2)" d="M 320.491837 474.326098 
L 320.491837 471.645378 
" style="fill:none;stroke:#008000;stroke-opacity:0.5;stroke-width:1.5;"/>
    <path clip-path="url(#p9c25eb33d2)" d="M 331.879592 471.893769 
L 331.879592 468.8807 
" style="fill:none;stroke:#008000;stroke-opacity:0.5;stroke-width:1.5;"/>
    <path clip-path="url(#p9c25eb33d2)" d="M 343.267347 460.908374 
L 343.267347 457.225502 
" style="fill:none;stroke:#008000;stroke-opacity:0.5;stroke-width:1.5;"/>
    <path clip-path="url(#p9c25eb33d2)" d="M 354.655102 449.317467 
L 354.655102 444.941757 
" style="fill:none;stroke:#008000;stroke-opacity:0.5;stroke-width:1.5;"/>
    <path clip-path="url(#p9c25eb33d2)" d="M 366.042857 441.074492 
L 366.042857 436.617659 
" style="fill:none;stroke:#008000;stroke-opacity:0.5;stroke-width:1.5;"/>
    <path clip-path="url(#p9c25eb33d2)" d="M 377.430612 441.370316 
L 377.430612 436.890106 
" style="fill:none;stroke:#008000;stroke-opacity:0.5;stroke-width:1.5;"/>
    <path clip-path="url(#p9c25eb33d2)" d="M 388.818367 427.943131 
L 388.818367 422.702655 
" style="fill:none;stroke:#008000;stroke-opacity:0.5;stroke-width:1.5;"/>
    <path clip-path="url(#p9c25eb33d2)" d="M 400.206122 419.415871 
L 400.206122 413.726893 
" style="fill:none;stroke:#008000;stroke-opacity:0.5;stroke-width:1.5;"/>
    <path clip-path="url(#p9c25eb33d2)" d="M 411.593878 419.999542 
L 411.593878 414.252603 
" style="fill:none;stroke:#008000;stroke-opacity:0.5;stroke-width:1.5;"/>
    <path clip-path="url(#p9c25eb33d2)" d="M 422.981633 404.504399 
L 422.981633 397.55914 
" style="fill:none;stroke:#008000;stroke-opacity:0.5;stroke-width:1.5;"/>
    <path clip-path="url(#p9c25eb33d2)" d="M 434.369388 394.376699 
L 434.369388 385.583283 
" style="fill:none;stroke:#008000;stroke-opacity:0.5;stroke-width:1.5;"/>
    <path clip-path="url(#p9c25eb33d2)" d="M 445.757143 388.366861 
L 445.757143 379.095831 
" style="fill:none;stroke:#008000;stroke-opacity:0.5;stroke-width:1.5;"/>
    <path clip-path="url(#p9c25eb33d2)" d="M 457.144898 386.497597 
L 457.144898 376.753647 
" style="fill:none;stroke:#008000;stroke-opacity:0.5;stroke-width:1.5;"/>
    <path clip-path="url(#p9c25eb33d2)" d="M 468.532653 370.642708 
L 468.532653 358.034777 
" style="fill:none;stroke:#008000;stroke-opacity:0.5;stroke-width:1.5;"/>
    <path clip-path="url(#p9c25eb33d2)" d="M 479.920408 370.460261 
L 479.920408 360.739005 
" style="fill:none;stroke:#008000;stroke-opacity:0.5;stroke-width:1.5;"/>
    <path clip-path="url(#p9c25eb33d2)" d="M 491.308163 344.211953 
L 491.308163 331.750168 
" style="fill:none;stroke:#008000;stroke-opacity:0.5;stroke-width:1.5;"/>
    <path clip-path="url(#p9c25eb33d2)" d="M 502.695918 349.409245 
L 502.695918 337.05161 
" style="fill:none;stroke:#008000;stroke-opacity:0.5;stroke-width:1.5;"/>
    <path clip-path="url(#p9c25eb33d2)" d="M 514.083673 337.252461 
L 514.083673 324.9076 
" style="fill:none;stroke:#008000;stroke-opacity:0.5;stroke-width:1.5;"/>
    <path clip-path="url(#p9c25eb33d2)" d="M 525.471429 299.055172 
L 525.471429 280.871088 
" style="fill:none;stroke:#008000;stroke-opacity:0.5;stroke-width:1.5;"/>
    <path clip-path="url(#p9c25eb33d2)" d="M 536.859184 322.189612 
L 536.859184 301.444185 
" style="fill:none;stroke:#008000;stroke-opacity:0.5;stroke-width:1.5;"/>
    <path clip-path="url(#p9c25eb33d2)" d="M 548.246939 302.997553 
L 548.246939 287.191091 
" style="fill:none;stroke:#008000;stroke-opacity:0.5;stroke-width:1.5;"/>
    <path clip-path="url(#p9c25eb33d2)" d="M 559.634694 299.899821 
L 559.634694 278.985617 
" style="fill:none;stroke:#008000;stroke-opacity:0.5;stroke-width:1.5;"/>
    <path clip-path="url(#p9c25eb33d2)" d="M 571.022449 275.344624 
L 571.022449 254.794156 
" style="fill:none;stroke:#008000;stroke-opacity:0.5;stroke-width:1.5;"/>
    <path clip-path="url(#p9c25eb33d2)" d="M 582.410204 293.806404 
L 582.410204 273.853996 
" style="fill:none;stroke:#008000;stroke-opacity:0.5;stroke-width:1.5;"/>
    <path clip-path="url(#p9c25eb33d2)" d="M 593.797959 259.964061 
L 593.797959 238.408757 
" style="fill:none;stroke:#008000;stroke-opacity:0.5;stroke-width:1.5;"/>
    <path clip-path="url(#p9c25eb33d2)" d="M 605.185714 250.259313 
L 605.185714 226.57498 
" style="fill:none;stroke:#008000;stroke-opacity:0.5;stroke-width:1.5;"/>
    <path clip-path="url(#p9c25eb33d2)" d="M 616.573469 229.225667 
L 616.573469 197.612375 
" style="fill:none;stroke:#008000;stroke-opacity:0.5;stroke-width:1.5;"/>
    <path clip-path="url(#p9c25eb33d2)" d="M 627.961224 215.806207 
L 627.961224 187.213806 
" style="fill:none;stroke:#008000;stroke-opacity:0.5;stroke-width:1.5;"/>
    <path clip-path="url(#p9c25eb33d2)" d="M 639.34898 233.792184 
L 639.34898 207.874306 
" style="fill:none;stroke:#008000;stroke-opacity:0.5;stroke-width:1.5;"/>
    <path clip-path="url(#p9c25eb33d2)" d="M 650.736735 208.708396 
L 650.736735 177.339223 
" style="fill:none;stroke:#008000;stroke-opacity:0.5;stroke-width:1.5;"/>
    <path clip-path="url(#p9c25eb33d2)" d="M 662.12449 173.332975 
L 662.12449 136.139556 
" style="fill:none;stroke:#008000;stroke-opacity:0.5;stroke-width:1.5;"/>
    <path clip-path="url(#p9c25eb33d2)" d="M 673.512245 207.788072 
L 673.512245 172.379558 
" style="fill:none;stroke:#008000;stroke-opacity:0.5;stroke-width:1.5;"/>
    <path clip-path="url(#p9c25eb33d2)" d="M 684.9 184.85259 
L 684.9 136.810159 
" style="fill:none;stroke:#008000;stroke-opacity:0.5;stroke-width:1.5;"/>
   </g>
   <g id="line2d_14">
    <path clip-path="url(#p9c25eb33d2)" d="M 126.9 554.04 
L 129.692793 553.896741 
L 134.161261 553.439406 
L 139.746847 552.626624 
L 145.890991 551.499703 
L 152.593694 550.042368 
L 159.854955 548.233103 
L 167.674775 546.048094 
L 176.053153 543.462328 
L 184.431532 540.645641 
L 193.368468 537.406389 
L 202.863964 533.717625 
L 212.359459 529.790474 
L 222.413514 525.387649 
L 232.467568 520.74655 
L 243.08018 515.601972 
L 253.692793 510.216719 
L 264.863964 504.299342 
L 276.035135 498.137273 
L 287.764865 491.413977 
L 299.494595 484.440869 
L 311.782883 476.87718 
L 324.071171 469.057763 
L 336.918018 460.618278 
L 349.764865 451.916558 
L 363.17027 442.565213 
L 376.575676 432.944673 
L 390.53964 422.644922 
L 404.503604 412.068659 
L 419.026126 400.783595 
L 433.548649 389.214418 
L 448.071171 377.367942 
L 463.152252 364.779128 
L 478.233333 351.904744 
L 493.872973 338.258526 
L 509.512613 324.318334 
L 525.710811 309.576842 
L 541.909009 294.532854 
L 558.665766 278.658132 
L 575.422523 262.472295 
L 592.179279 245.981212 
L 609.494595 228.62564 
L 626.80991 210.955851 
L 644.683784 192.392305 
L 662.557658 173.505523 
L 680.431532 154.300944 
L 684.9 149.450756 
L 684.9 149.450756 
" style="fill:none;stroke:#ff0000;stroke-linecap:square;stroke-width:1.5;"/>
   </g>
   <g id="line2d_15">
    <path clip-path="url(#p9c25eb33d2)" d="M 126.9 554.04 
L 130.251351 553.853449 
L 134.71982 553.375092 
L 140.305405 552.547596 
L 146.44955 551.411719 
L 153.152252 549.950065 
L 160.413514 548.140754 
L 168.233333 545.959891 
L 176.611712 543.382517 
L 184.99009 540.577688 
L 193.927027 537.354412 
L 203.422523 533.685965 
L 212.918018 529.782238 
L 222.972072 525.407298 
L 233.026126 520.797012 
L 243.638739 515.687906 
L 254.80991 510.053148 
L 265.981081 504.166634 
L 277.710811 497.726139 
L 289.440541 491.030049 
L 301.728829 483.751195 
L 314.017117 476.211821 
L 326.863964 468.060642 
L 339.710811 459.643233 
L 353.116216 450.584832 
L 366.521622 441.253896 
L 379.927027 431.658166 
L 393.890991 421.388703 
L 407.854955 410.847051 
L 422.377477 399.602357 
L 436.9 388.07782 
L 451.981081 375.820946 
L 467.062162 363.276363 
L 482.701802 349.970169 
L 498.341441 336.368222 
L 513.981081 322.476818 
L 530.179279 307.790446 
L 546.377477 292.806084 
L 563.134234 276.997622 
L 579.890991 260.882549 
L 597.206306 243.914275 
L 614.521622 226.630692 
L 631.836937 209.037453 
L 649.710811 190.557565 
L 667.584685 171.759019 
L 684.9 153.249067 
L 684.9 153.249067 
" style="fill:none;stroke:#0000ff;stroke-linecap:square;stroke-width:1.5;"/>
   </g>
   <g id="line2d_16">
    <path clip-path="url(#p9c25eb33d2)" d="M 126.9 554.04 
L 130.251351 553.854474 
L 134.71982 553.378744 
L 140.305405 552.555793 
L 146.44955 551.426155 
L 153.152252 549.972529 
L 160.413514 548.173156 
L 168.233333 546.004271 
L 176.611712 543.441053 
L 184.99009 540.65163 
L 193.927027 537.446058 
L 203.422523 533.797761 
L 212.918018 529.915475 
L 222.972072 525.564565 
L 233.584685 520.718254 
L 244.197297 515.624487 
L 255.368468 510.007895 
L 266.53964 504.141475 
L 278.269369 497.724022 
L 289.999099 491.052848 
L 302.287387 483.801995 
L 314.575676 476.292468 
L 327.422523 468.174368 
L 340.269369 459.79187 
L 353.674775 450.771767 
L 367.08018 441.48096 
L 381.044144 431.52344 
L 395.008108 421.288464 
L 408.972072 410.783359 
L 423.494595 399.578773 
L 438.017117 388.096407 
L 453.098198 375.88543 
L 468.179279 363.388813 
L 483.818919 350.134479 
L 499.458559 336.586477 
L 515.098198 322.751039 
L 531.296396 308.124702 
L 547.494595 293.20242 
L 564.251351 277.460275 
L 581.008108 261.413592 
L 598.323423 244.518111 
L 615.638739 227.309425 
L 632.954054 209.793135 
L 650.827928 191.394782 
L 668.701802 172.679859 
L 684.9 155.45043 
L 684.9 155.45043 
" style="fill:none;stroke:#008000;stroke-linecap:square;stroke-width:1.5;"/>
   </g>
   <g id="line2d_17">
    <path clip-path="url(#p9c25eb33d2)" d="M 126.9 554.04 
L 138.287755 552.597707 
L 149.67551 550.212154 
L 161.063265 547.34199 
L 172.45102 543.958484 
L 183.838776 540.420056 
L 195.226531 535.830872 
L 206.614286 531.192162 
L 218.002041 526.430163 
L 229.389796 522.666258 
L 240.777551 516.33766 
L 252.165306 510.712179 
L 263.553061 504.879726 
L 274.940816 499.847108 
L 286.328571 493.232686 
L 297.716327 484.524754 
L 309.104082 481.291668 
L 320.491837 471.001261 
L 331.879592 463.363184 
L 343.267347 456.086609 
L 354.655102 449.551352 
L 366.042857 445.251955 
L 377.430612 433.81793 
L 388.818367 421.769652 
L 400.206122 423.363771 
L 411.593878 404.986832 
L 422.981633 397.786417 
L 434.369388 380.97991 
L 445.757143 394.505513 
L 457.144898 360.039373 
L 468.532653 361.895267 
L 479.920408 339.070849 
L 491.308163 326.661701 
L 502.695918 348.379229 
L 514.083673 317.601261 
L 525.471429 310.537637 
L 536.859184 292.011992 
L 548.246939 283.216254 
L 559.634694 256.765853 
L 571.022449 281.298717 
L 582.410204 271.251827 
L 593.797959 240.618927 
L 605.185714 259.890965 
L 616.573469 214.67539 
L 627.961224 177.365563 
L 639.34898 194.42316 
L 650.736735 180.115266 
L 662.12449 175.462995 
L 673.512245 190.970488 
L 684.9 162.916587 
" style="fill:none;stroke:#ff0000;stroke-linecap:square;stroke-opacity:0.5;stroke-width:1.5;"/>
   </g>
   <g id="line2d_18">
    <path clip-path="url(#p9c25eb33d2)" d="M 126.9 554.04 
L 138.287755 552.597707 
L 149.67551 550.213596 
L 161.063265 547.440066 
L 172.45102 543.701588 
L 183.838776 540.183751 
L 195.226531 535.981224 
L 206.614286 531.436792 
L 218.002041 526.222883 
L 229.389796 521.962992 
L 240.777551 516.976554 
L 252.165306 512.075747 
L 263.553061 504.883546 
L 274.940816 498.260666 
L 286.328571 491.697646 
L 297.716327 486.241875 
L 309.104082 478.444075 
L 320.491837 473.447405 
L 331.879592 464.326231 
L 343.267347 459.325033 
L 354.655102 455.816781 
L 366.042857 442.550817 
L 377.430612 427.925365 
L 388.818367 426.39062 
L 400.206122 420.455337 
L 411.593878 407.11132 
L 422.981633 398.318832 
L 434.369388 389.317956 
L 445.757143 382.352905 
L 457.144898 379.821022 
L 468.532653 361.603967 
L 479.920408 357.402589 
L 491.308163 348.952888 
L 502.695918 336.649842 
L 514.083673 303.590587 
L 525.471429 328.015996 
L 536.859184 294.276035 
L 548.246939 296.01118 
L 559.634694 280.175382 
L 571.022449 273.623601 
L 582.410204 260.657131 
L 593.797959 249.343924 
L 605.185714 245.807108 
L 616.573469 219.660498 
L 627.961224 195.922254 
L 639.34898 224.203415 
L 650.736735 181.892822 
L 662.12449 131.616608 
L 673.512245 187.338072 
L 684.9 207.189055 
" style="fill:none;stroke:#0000ff;stroke-linecap:square;stroke-opacity:0.5;stroke-width:1.5;"/>
   </g>
   <g id="line2d_19">
    <path clip-path="url(#p9c25eb33d2)" d="M 126.9 554.04 
L 138.287755 552.597707 
L 149.67551 550.166962 
L 161.063265 547.482373 
L 172.45102 543.91043 
L 183.838776 540.2019 
L 195.226531 535.739558 
L 206.614286 531.909438 
L 218.002041 526.586484 
L 229.389796 521.764622 
L 240.777551 516.00594 
L 252.165306 511.315934 
L 263.553061 504.899282 
L 274.940816 498.050353 
L 286.328571 492.092018 
L 297.716327 484.459371 
L 309.104082 479.919906 
L 320.491837 472.985738 
L 331.879592 470.387235 
L 343.267347 459.066938 
L 354.655102 447.129612 
L 366.042857 438.846076 
L 377.430612 439.130211 
L 388.818367 425.322893 
L 400.206122 416.571382 
L 411.593878 417.126072 
L 422.981633 401.03177 
L 434.369388 389.979991 
L 445.757143 383.731346 
L 457.144898 381.625622 
L 468.532653 364.338742 
L 479.920408 365.599633 
L 491.308163 337.981061 
L 502.695918 343.230428 
L 514.083673 331.08003 
L 525.471429 289.96313 
L 536.859184 311.816899 
L 548.246939 295.094322 
L 559.634694 289.442719 
L 571.022449 265.06939 
L 582.410204 283.8302 
L 593.797959 249.186409 
L 605.185714 238.417146 
L 616.573469 213.419021 
L 627.961224 201.510007 
L 639.34898 220.833245 
L 650.736735 193.02381 
L 662.12449 154.736265 
L 673.512245 190.083815 
L 684.9 160.831374 
" style="fill:none;stroke:#008000;stroke-linecap:square;stroke-opacity:0.5;stroke-width:1.5;"/>
   </g>
   <g id="patch_3">
    <path d="M 99 576.72 
L 99 77.76 
" style="fill:none;stroke:#000000;stroke-linecap:square;stroke-linejoin:miter;stroke-width:0.8;"/>
   </g>
   <g id="patch_4">
    <path d="M 712.8 576.72 
L 712.8 77.76 
" style="fill:none;stroke:#000000;stroke-linecap:square;stroke-linejoin:miter;stroke-width:0.8;"/>
   </g>
   <g id="patch_5">
    <path d="M 99 576.72 
L 712.8 576.72 
" style="fill:none;stroke:#000000;stroke-linecap:square;stroke-linejoin:miter;stroke-width:0.8;"/>
   </g>
   <g id="patch_6">
    <path d="M 99 77.76 
L 712.8 77.76 
" style="fill:none;stroke:#000000;stroke-linecap:square;stroke-linejoin:miter;stroke-width:0.8;"/>
   </g>
   <g id="text_16">
    <!-- Radius of gyration vs polymer length, based on data from N polymers -->
    <g transform="translate(196.243125 71.76)scale(0.12 -0.12)">
     <defs>
      <path d="M 2.984375 54.6875 
L 12.5 54.6875 
L 29.59375 8.796875 
L 46.6875 54.6875 
L 56.203125 54.6875 
L 35.6875 0 
L 23.484375 0 
z
" id="DejaVuSans-118"/>
      <path d="M 18.109375 8.203125 
L 18.109375 -20.796875 
L 9.078125 -20.796875 
L 9.078125 54.6875 
L 18.109375 54.6875 
L 18.109375 46.390625 
Q 20.953125 51.265625 25.265625 53.625 
Q 29.59375 56 35.59375 56 
Q 45.5625 56 51.78125 48.09375 
Q 58.015625 40.1875 58.015625 27.296875 
Q 58.015625 14.40625 51.78125 6.484375 
Q 45.5625 -1.421875 35.59375 -1.421875 
Q 29.59375 -1.421875 25.265625 0.953125 
Q 20.953125 3.328125 18.109375 8.203125 
z
M 48.6875 27.296875 
Q 48.6875 37.203125 44.609375 42.84375 
Q 40.53125 48.484375 33.40625 48.484375 
Q 26.265625 48.484375 22.1875 42.84375 
Q 18.109375 37.203125 18.109375 27.296875 
Q 18.109375 17.390625 22.1875 11.75 
Q 26.265625 6.109375 33.40625 6.109375 
Q 40.53125 6.109375 44.609375 11.75 
Q 48.6875 17.390625 48.6875 27.296875 
z
" id="DejaVuSans-112"/>
      <path d="M 9.421875 75.984375 
L 18.40625 75.984375 
L 18.40625 0 
L 9.421875 0 
z
" id="DejaVuSans-108"/>
      <path d="M 52 44.1875 
Q 55.375 50.25 60.0625 53.125 
Q 64.75 56 71.09375 56 
Q 79.640625 56 84.28125 50.015625 
Q 88.921875 44.046875 88.921875 33.015625 
L 88.921875 0 
L 79.890625 0 
L 79.890625 32.71875 
Q 79.890625 40.578125 77.09375 44.375 
Q 74.3125 48.1875 68.609375 48.1875 
Q 61.625 48.1875 57.5625 43.546875 
Q 53.515625 38.921875 53.515625 30.90625 
L 53.515625 0 
L 44.484375 0 
L 44.484375 32.71875 
Q 44.484375 40.625 41.703125 44.40625 
Q 38.921875 48.1875 33.109375 48.1875 
Q 26.21875 48.1875 22.15625 43.53125 
Q 18.109375 38.875 18.109375 30.90625 
L 18.109375 0 
L 9.078125 0 
L 9.078125 54.6875 
L 18.109375 54.6875 
L 18.109375 46.1875 
Q 21.1875 51.21875 25.484375 53.609375 
Q 29.78125 56 35.6875 56 
Q 41.65625 56 45.828125 52.96875 
Q 50 49.953125 52 44.1875 
z
" id="DejaVuSans-109"/>
      <path d="M 56.203125 29.59375 
L 56.203125 25.203125 
L 14.890625 25.203125 
Q 15.484375 15.921875 20.484375 11.0625 
Q 25.484375 6.203125 34.421875 6.203125 
Q 39.59375 6.203125 44.453125 7.46875 
Q 49.3125 8.734375 54.109375 11.28125 
L 54.109375 2.78125 
Q 49.265625 0.734375 44.1875 -0.34375 
Q 39.109375 -1.421875 33.890625 -1.421875 
Q 20.796875 -1.421875 13.15625 6.1875 
Q 5.515625 13.8125 5.515625 26.8125 
Q 5.515625 40.234375 12.765625 48.109375 
Q 20.015625 56 32.328125 56 
Q 43.359375 56 49.78125 48.890625 
Q 56.203125 41.796875 56.203125 29.59375 
z
M 47.21875 32.234375 
Q 47.125 39.59375 43.09375 43.984375 
Q 39.0625 48.390625 32.421875 48.390625 
Q 24.90625 48.390625 20.390625 44.140625 
Q 15.875 39.890625 15.1875 32.171875 
z
" id="DejaVuSans-101"/>
      <path d="M 54.890625 33.015625 
L 54.890625 0 
L 45.90625 0 
L 45.90625 32.71875 
Q 45.90625 40.484375 42.875 44.328125 
Q 39.84375 48.1875 33.796875 48.1875 
Q 26.515625 48.1875 22.3125 43.546875 
Q 18.109375 38.921875 18.109375 30.90625 
L 18.109375 0 
L 9.078125 0 
L 9.078125 75.984375 
L 18.109375 75.984375 
L 18.109375 46.1875 
Q 21.34375 51.125 25.703125 53.5625 
Q 30.078125 56 35.796875 56 
Q 45.21875 56 50.046875 50.171875 
Q 54.890625 44.34375 54.890625 33.015625 
z
" id="DejaVuSans-104"/>
      <path d="M 11.71875 12.40625 
L 22.015625 12.40625 
L 22.015625 4 
L 14.015625 -11.625 
L 7.71875 -11.625 
L 11.71875 4 
z
" id="DejaVuSans-44"/>
      <path d="M 48.6875 27.296875 
Q 48.6875 37.203125 44.609375 42.84375 
Q 40.53125 48.484375 33.40625 48.484375 
Q 26.265625 48.484375 22.1875 42.84375 
Q 18.109375 37.203125 18.109375 27.296875 
Q 18.109375 17.390625 22.1875 11.75 
Q 26.265625 6.109375 33.40625 6.109375 
Q 40.53125 6.109375 44.609375 11.75 
Q 48.6875 17.390625 48.6875 27.296875 
z
M 18.109375 46.390625 
Q 20.953125 51.265625 25.265625 53.625 
Q 29.59375 56 35.59375 56 
Q 45.5625 56 51.78125 48.09375 
Q 58.015625 40.1875 58.015625 27.296875 
Q 58.015625 14.40625 51.78125 6.484375 
Q 45.5625 -1.421875 35.59375 -1.421875 
Q 29.59375 -1.421875 25.265625 0.953125 
Q 20.953125 3.328125 18.109375 8.203125 
L 18.109375 0 
L 9.078125 0 
L 9.078125 75.984375 
L 18.109375 75.984375 
z
" id="DejaVuSans-98"/>
      <path d="M 9.8125 72.90625 
L 23.09375 72.90625 
L 55.421875 11.921875 
L 55.421875 72.90625 
L 64.984375 72.90625 
L 64.984375 0 
L 51.703125 0 
L 19.390625 60.984375 
L 19.390625 0 
L 9.8125 0 
z
" id="DejaVuSans-78"/>
     </defs>
     <use xlink:href="#DejaVuSans-82"/>
     <use x="67.232422" xlink:href="#DejaVuSans-97"/>
     <use x="128.511719" xlink:href="#DejaVuSans-100"/>
     <use x="191.988281" xlink:href="#DejaVuSans-105"/>
     <use x="219.771484" xlink:href="#DejaVuSans-117"/>
     <use x="283.150391" xlink:href="#DejaVuSans-115"/>
     <use x="335.25" xlink:href="#DejaVuSans-32"/>
     <use x="367.037109" xlink:href="#DejaVuSans-111"/>
     <use x="428.21875" xlink:href="#DejaVuSans-102"/>
     <use x="463.423828" xlink:href="#DejaVuSans-32"/>
     <use x="495.210938" xlink:href="#DejaVuSans-103"/>
     <use x="558.6875" xlink:href="#DejaVuSans-121"/>
     <use x="617.867188" xlink:href="#DejaVuSans-114"/>
     <use x="658.980469" xlink:href="#DejaVuSans-97"/>
     <use x="720.259766" xlink:href="#DejaVuSans-116"/>
     <use x="759.46875" xlink:href="#DejaVuSans-105"/>
     <use x="787.251953" xlink:href="#DejaVuSans-111"/>
     <use x="848.433594" xlink:href="#DejaVuSans-110"/>
     <use x="911.8125" xlink:href="#DejaVuSans-32"/>
     <use x="943.599609" xlink:href="#DejaVuSans-118"/>
     <use x="1002.779297" xlink:href="#DejaVuSans-115"/>
     <use x="1054.878906" xlink:href="#DejaVuSans-32"/>
     <use x="1086.666016" xlink:href="#DejaVuSans-112"/>
     <use x="1150.142578" xlink:href="#DejaVuSans-111"/>
     <use x="1211.324219" xlink:href="#DejaVuSans-108"/>
     <use x="1239.107422" xlink:href="#DejaVuSans-121"/>
     <use x="1298.287109" xlink:href="#DejaVuSans-109"/>
     <use x="1395.699219" xlink:href="#DejaVuSans-101"/>
     <use x="1457.222656" xlink:href="#DejaVuSans-114"/>
     <use x="1498.335938" xlink:href="#DejaVuSans-32"/>
     <use x="1530.123047" xlink:href="#DejaVuSans-108"/>
     <use x="1557.90625" xlink:href="#DejaVuSans-101"/>
     <use x="1619.429688" xlink:href="#DejaVuSans-110"/>
     <use x="1682.808594" xlink:href="#DejaVuSans-103"/>
     <use x="1746.285156" xlink:href="#DejaVuSans-116"/>
     <use x="1785.494141" xlink:href="#DejaVuSans-104"/>
     <use x="1848.873047" xlink:href="#DejaVuSans-44"/>
     <use x="1880.660156" xlink:href="#DejaVuSans-32"/>
     <use x="1912.447266" xlink:href="#DejaVuSans-98"/>
     <use x="1975.923828" xlink:href="#DejaVuSans-97"/>
     <use x="2037.203125" xlink:href="#DejaVuSans-115"/>
     <use x="2089.302734" xlink:href="#DejaVuSans-101"/>
     <use x="2150.826172" xlink:href="#DejaVuSans-100"/>
     <use x="2214.302734" xlink:href="#DejaVuSans-32"/>
     <use x="2246.089844" xlink:href="#DejaVuSans-111"/>
     <use x="2307.271484" xlink:href="#DejaVuSans-110"/>
     <use x="2370.650391" xlink:href="#DejaVuSans-32"/>
     <use x="2402.4375" xlink:href="#DejaVuSans-100"/>
     <use x="2465.914062" xlink:href="#DejaVuSans-97"/>
     <use x="2527.193359" xlink:href="#DejaVuSans-116"/>
     <use x="2566.402344" xlink:href="#DejaVuSans-97"/>
     <use x="2627.681641" xlink:href="#DejaVuSans-32"/>
     <use x="2659.46875" xlink:href="#DejaVuSans-102"/>
     <use x="2694.673828" xlink:href="#DejaVuSans-114"/>
     <use x="2733.537109" xlink:href="#DejaVuSans-111"/>
     <use x="2794.71875" xlink:href="#DejaVuSans-109"/>
     <use x="2892.130859" xlink:href="#DejaVuSans-32"/>
     <use x="2923.917969" xlink:href="#DejaVuSans-78"/>
     <use x="2998.722656" xlink:href="#DejaVuSans-32"/>
     <use x="3030.509766" xlink:href="#DejaVuSans-112"/>
     <use x="3093.986328" xlink:href="#DejaVuSans-111"/>
     <use x="3155.167969" xlink:href="#DejaVuSans-108"/>
     <use x="3182.951172" xlink:href="#DejaVuSans-121"/>
     <use x="3242.130859" xlink:href="#DejaVuSans-109"/>
     <use x="3339.542969" xlink:href="#DejaVuSans-101"/>
     <use x="3401.066406" xlink:href="#DejaVuSans-114"/>
     <use x="3442.179688" xlink:href="#DejaVuSans-115"/>
    </g>
   </g>
   <g id="legend_1">
    <g id="patch_7">
     <path d="M 106 178.394375 
L 299.2 178.394375 
Q 301.2 178.394375 301.2 176.394375 
L 301.2 84.76 
Q 301.2 82.76 299.2 82.76 
L 106 82.76 
Q 104 82.76 104 84.76 
L 104 176.394375 
Q 104 178.394375 106 178.394375 
z
" style="fill:#ffffff;opacity:0.8;stroke:#cccccc;stroke-linejoin:miter;"/>
    </g>
    <g id="line2d_20">
     <path d="M 108 90.858438 
L 128 90.858438 
" style="fill:none;stroke:#ff0000;stroke-linecap:square;stroke-width:1.5;"/>
    </g>
    <g id="line2d_21"/>
    <g id="text_17">
     <!-- fit$\propto L^{3/2}$ to data -->
     <g transform="translate(136 94.358438)scale(0.1 -0.1)">
      <defs>
       <path d="M 25.734375 17.71875 
Q 33.796875 17.71875 38.625 29.4375 
Q 32.421875 42.234375 25.734375 42.234375 
Q 20.84375 42.234375 18.359375 38.71875 
Q 15.71875 34.96875 15.71875 29.984375 
Q 15.71875 24.515625 18.359375 21.140625 
Q 21.09375 17.71875 25.734375 17.71875 
z
M 60.6875 17.625 
L 60.6875 11.1875 
L 56.9375 11.1875 
Q 53.375 11.1875 50.734375 12.640625 
Q 48.09375 13.96875 45.5625 17.046875 
Q 44.046875 18.796875 41.65625 22.90625 
Q 38.375 17.046875 35.5 14.453125 
Q 31.9375 11.328125 26.265625 11.328125 
Q 19.671875 11.328125 15.328125 16.265625 
Q 10.75 21.4375 10.75 29.984375 
Q 10.75 38.1875 15.328125 43.75 
Q 19.390625 48.6875 26.375 48.6875 
Q 29.9375 48.6875 32.5625 47.21875 
Q 35.640625 45.609375 37.75 42.828125 
Q 39.703125 40.328125 41.65625 36.96875 
Q 44.921875 42.828125 47.796875 45.40625 
Q 51.375 48.53125 57.03125 48.53125 
L 60.6875 48.53125 
L 60.6875 42.140625 
L 57.5625 42.140625 
Q 50.34375 42.140625 44.671875 30.421875 
Q 50.875 17.625 57.5625 17.625 
z
" id="DejaVuSans-8733"/>
       <path d="M 25.390625 72.90625 
L 33.6875 72.90625 
L 8.296875 -9.28125 
L 0 -9.28125 
z
" id="DejaVuSans-47"/>
      </defs>
      <use transform="translate(0 0.765625)" xlink:href="#DejaVuSans-102"/>
      <use transform="translate(35.205078 0.765625)" xlink:href="#DejaVuSans-105"/>
      <use transform="translate(62.988281 0.765625)" xlink:href="#DejaVuSans-116"/>
      <use transform="translate(121.679688 0.765625)" xlink:href="#DejaVuSans-8733"/>
      <use transform="translate(212.597656 0.765625)" xlink:href="#DejaVuSans-Oblique-76"/>
      <use transform="translate(275.327318 39.046875)scale(0.7)" xlink:href="#DejaVuSans-51"/>
      <use transform="translate(319.863451 39.046875)scale(0.7)" xlink:href="#DejaVuSans-47"/>
      <use transform="translate(340.909935 39.046875)scale(0.7)" xlink:href="#DejaVuSans-50"/>
      <use transform="translate(388.180443 0.765625)" xlink:href="#DejaVuSans-32"/>
      <use transform="translate(419.967552 0.765625)" xlink:href="#DejaVuSans-116"/>
      <use transform="translate(459.176536 0.765625)" xlink:href="#DejaVuSans-111"/>
      <use transform="translate(520.358177 0.765625)" xlink:href="#DejaVuSans-32"/>
      <use transform="translate(552.145286 0.765625)" xlink:href="#DejaVuSans-100"/>
      <use transform="translate(615.621849 0.765625)" xlink:href="#DejaVuSans-97"/>
      <use transform="translate(676.901146 0.765625)" xlink:href="#DejaVuSans-116"/>
      <use transform="translate(716.11013 0.765625)" xlink:href="#DejaVuSans-97"/>
     </g>
    </g>
    <g id="line2d_22">
     <path d="M 108 105.536563 
L 128 105.536563 
" style="fill:none;stroke:#0000ff;stroke-linecap:square;stroke-width:1.5;"/>
    </g>
    <g id="line2d_23"/>
    <g id="text_18">
     <!-- fit$\propto L^{3/2}$ to data -->
     <g transform="translate(136 109.036563)scale(0.1 -0.1)">
      <use transform="translate(0 0.765625)" xlink:href="#DejaVuSans-102"/>
      <use transform="translate(35.205078 0.765625)" xlink:href="#DejaVuSans-105"/>
      <use transform="translate(62.988281 0.765625)" xlink:href="#DejaVuSans-116"/>
      <use transform="translate(121.679688 0.765625)" xlink:href="#DejaVuSans-8733"/>
      <use transform="translate(212.597656 0.765625)" xlink:href="#DejaVuSans-Oblique-76"/>
      <use transform="translate(275.327318 39.046875)scale(0.7)" xlink:href="#DejaVuSans-51"/>
      <use transform="translate(319.863451 39.046875)scale(0.7)" xlink:href="#DejaVuSans-47"/>
      <use transform="translate(340.909935 39.046875)scale(0.7)" xlink:href="#DejaVuSans-50"/>
      <use transform="translate(388.180443 0.765625)" xlink:href="#DejaVuSans-32"/>
      <use transform="translate(419.967552 0.765625)" xlink:href="#DejaVuSans-116"/>
      <use transform="translate(459.176536 0.765625)" xlink:href="#DejaVuSans-111"/>
      <use transform="translate(520.358177 0.765625)" xlink:href="#DejaVuSans-32"/>
      <use transform="translate(552.145286 0.765625)" xlink:href="#DejaVuSans-100"/>
      <use transform="translate(615.621849 0.765625)" xlink:href="#DejaVuSans-97"/>
      <use transform="translate(676.901146 0.765625)" xlink:href="#DejaVuSans-116"/>
      <use transform="translate(716.11013 0.765625)" xlink:href="#DejaVuSans-97"/>
     </g>
    </g>
    <g id="line2d_24">
     <path d="M 108 120.214688 
L 128 120.214688 
" style="fill:none;stroke:#008000;stroke-linecap:square;stroke-width:1.5;"/>
    </g>
    <g id="line2d_25"/>
    <g id="text_19">
     <!-- fit$\propto L^{3/2}$ to data -->
     <g transform="translate(136 123.714688)scale(0.1 -0.1)">
      <use transform="translate(0 0.765625)" xlink:href="#DejaVuSans-102"/>
      <use transform="translate(35.205078 0.765625)" xlink:href="#DejaVuSans-105"/>
      <use transform="translate(62.988281 0.765625)" xlink:href="#DejaVuSans-116"/>
      <use transform="translate(121.679688 0.765625)" xlink:href="#DejaVuSans-8733"/>
      <use transform="translate(212.597656 0.765625)" xlink:href="#DejaVuSans-Oblique-76"/>
      <use transform="translate(275.327318 39.046875)scale(0.7)" xlink:href="#DejaVuSans-51"/>
      <use transform="translate(319.863451 39.046875)scale(0.7)" xlink:href="#DejaVuSans-47"/>
      <use transform="translate(340.909935 39.046875)scale(0.7)" xlink:href="#DejaVuSans-50"/>
      <use transform="translate(388.180443 0.765625)" xlink:href="#DejaVuSans-32"/>
      <use transform="translate(419.967552 0.765625)" xlink:href="#DejaVuSans-116"/>
      <use transform="translate(459.176536 0.765625)" xlink:href="#DejaVuSans-111"/>
      <use transform="translate(520.358177 0.765625)" xlink:href="#DejaVuSans-32"/>
      <use transform="translate(552.145286 0.765625)" xlink:href="#DejaVuSans-100"/>
      <use transform="translate(615.621849 0.765625)" xlink:href="#DejaVuSans-97"/>
      <use transform="translate(676.901146 0.765625)" xlink:href="#DejaVuSans-116"/>
      <use transform="translate(716.11013 0.765625)" xlink:href="#DejaVuSans-97"/>
     </g>
    </g>
    <g id="LineCollection_4">
     <path d="M 118 141.394375 
L 118 131.394375 
" style="fill:none;stroke:#ff0000;stroke-opacity:0.5;stroke-width:1.5;"/>
    </g>
    <g id="line2d_26">
     <path d="M 108 136.394375 
L 128 136.394375 
" style="fill:none;stroke:#ff0000;stroke-linecap:square;stroke-opacity:0.5;stroke-width:1.5;"/>
    </g>
    <g id="line2d_27"/>
    <g id="text_20">
     <!-- Simulated average $r^2$, N = 1000 -->
     <g transform="translate(136 139.894375)scale(0.1 -0.1)">
      <defs>
       <path d="M 53.515625 70.515625 
L 53.515625 60.890625 
Q 47.90625 63.578125 42.921875 64.890625 
Q 37.9375 66.21875 33.296875 66.21875 
Q 25.25 66.21875 20.875 63.09375 
Q 16.5 59.96875 16.5 54.203125 
Q 16.5 49.359375 19.40625 46.890625 
Q 22.3125 44.4375 30.421875 42.921875 
L 36.375 41.703125 
Q 47.40625 39.59375 52.65625 34.296875 
Q 57.90625 29 57.90625 20.125 
Q 57.90625 9.515625 50.796875 4.046875 
Q 43.703125 -1.421875 29.984375 -1.421875 
Q 24.8125 -1.421875 18.96875 -0.25 
Q 13.140625 0.921875 6.890625 3.21875 
L 6.890625 13.375 
Q 12.890625 10.015625 18.65625 8.296875 
Q 24.421875 6.59375 29.984375 6.59375 
Q 38.421875 6.59375 43.015625 9.90625 
Q 47.609375 13.234375 47.609375 19.390625 
Q 47.609375 24.75 44.3125 27.78125 
Q 41.015625 30.8125 33.5 32.328125 
L 27.484375 33.5 
Q 16.453125 35.6875 11.515625 40.375 
Q 6.59375 45.0625 6.59375 53.421875 
Q 6.59375 63.09375 13.40625 68.65625 
Q 20.21875 74.21875 32.171875 74.21875 
Q 37.3125 74.21875 42.625 73.28125 
Q 47.953125 72.359375 53.515625 70.515625 
z
" id="DejaVuSans-83"/>
       <path d="M 10.59375 45.40625 
L 73.1875 45.40625 
L 73.1875 37.203125 
L 10.59375 37.203125 
z
M 10.59375 25.484375 
L 73.1875 25.484375 
L 73.1875 17.1875 
L 10.59375 17.1875 
z
" id="DejaVuSans-61"/>
      </defs>
      <use transform="translate(0 0.765625)" xlink:href="#DejaVuSans-83"/>
      <use transform="translate(63.476562 0.765625)" xlink:href="#DejaVuSans-105"/>
      <use transform="translate(91.259766 0.765625)" xlink:href="#DejaVuSans-109"/>
      <use transform="translate(188.671875 0.765625)" xlink:href="#DejaVuSans-117"/>
      <use transform="translate(252.050781 0.765625)" xlink:href="#DejaVuSans-108"/>
      <use transform="translate(279.833984 0.765625)" xlink:href="#DejaVuSans-97"/>
      <use transform="translate(341.113281 0.765625)" xlink:href="#DejaVuSans-116"/>
      <use transform="translate(380.322266 0.765625)" xlink:href="#DejaVuSans-101"/>
      <use transform="translate(441.845703 0.765625)" xlink:href="#DejaVuSans-100"/>
      <use transform="translate(505.322266 0.765625)" xlink:href="#DejaVuSans-32"/>
      <use transform="translate(537.109375 0.765625)" xlink:href="#DejaVuSans-97"/>
      <use transform="translate(598.388672 0.765625)" xlink:href="#DejaVuSans-118"/>
      <use transform="translate(657.568359 0.765625)" xlink:href="#DejaVuSans-101"/>
      <use transform="translate(719.091797 0.765625)" xlink:href="#DejaVuSans-114"/>
      <use transform="translate(760.205078 0.765625)" xlink:href="#DejaVuSans-97"/>
      <use transform="translate(821.484375 0.765625)" xlink:href="#DejaVuSans-103"/>
      <use transform="translate(884.960938 0.765625)" xlink:href="#DejaVuSans-101"/>
      <use transform="translate(946.484375 0.765625)" xlink:href="#DejaVuSans-32"/>
      <use transform="translate(978.271484 0.765625)" xlink:href="#DejaVuSans-Oblique-114"/>
      <use transform="translate(1024.034661 39.046875)scale(0.7)" xlink:href="#DejaVuSans-50"/>
      <use transform="translate(1071.305169 0.765625)" xlink:href="#DejaVuSans-44"/>
      <use transform="translate(1103.092279 0.765625)" xlink:href="#DejaVuSans-32"/>
      <use transform="translate(1134.879388 0.765625)" xlink:href="#DejaVuSans-78"/>
      <use transform="translate(1209.684076 0.765625)" xlink:href="#DejaVuSans-32"/>
      <use transform="translate(1241.471185 0.765625)" xlink:href="#DejaVuSans-61"/>
      <use transform="translate(1325.260247 0.765625)" xlink:href="#DejaVuSans-32"/>
      <use transform="translate(1357.047357 0.765625)" xlink:href="#DejaVuSans-49"/>
      <use transform="translate(1420.670404 0.765625)" xlink:href="#DejaVuSans-48"/>
      <use transform="translate(1484.293451 0.765625)" xlink:href="#DejaVuSans-48"/>
      <use transform="translate(1547.916497 0.765625)" xlink:href="#DejaVuSans-48"/>
     </g>
    </g>
    <g id="LineCollection_5">
     <path d="M 118 157.594375 
L 118 147.594375 
" style="fill:none;stroke:#0000ff;stroke-opacity:0.5;stroke-width:1.5;"/>
    </g>
    <g id="line2d_28">
     <path d="M 108 152.594375 
L 128 152.594375 
" style="fill:none;stroke:#0000ff;stroke-linecap:square;stroke-opacity:0.5;stroke-width:1.5;"/>
    </g>
    <g id="line2d_29"/>
    <g id="text_21">
     <!-- Simulated average $r^2$, N = 2000 -->
     <g transform="translate(136 156.094375)scale(0.1 -0.1)">
      <use transform="translate(0 0.765625)" xlink:href="#DejaVuSans-83"/>
      <use transform="translate(63.476562 0.765625)" xlink:href="#DejaVuSans-105"/>
      <use transform="translate(91.259766 0.765625)" xlink:href="#DejaVuSans-109"/>
      <use transform="translate(188.671875 0.765625)" xlink:href="#DejaVuSans-117"/>
      <use transform="translate(252.050781 0.765625)" xlink:href="#DejaVuSans-108"/>
      <use transform="translate(279.833984 0.765625)" xlink:href="#DejaVuSans-97"/>
      <use transform="translate(341.113281 0.765625)" xlink:href="#DejaVuSans-116"/>
      <use transform="translate(380.322266 0.765625)" xlink:href="#DejaVuSans-101"/>
      <use transform="translate(441.845703 0.765625)" xlink:href="#DejaVuSans-100"/>
      <use transform="translate(505.322266 0.765625)" xlink:href="#DejaVuSans-32"/>
      <use transform="translate(537.109375 0.765625)" xlink:href="#DejaVuSans-97"/>
      <use transform="translate(598.388672 0.765625)" xlink:href="#DejaVuSans-118"/>
      <use transform="translate(657.568359 0.765625)" xlink:href="#DejaVuSans-101"/>
      <use transform="translate(719.091797 0.765625)" xlink:href="#DejaVuSans-114"/>
      <use transform="translate(760.205078 0.765625)" xlink:href="#DejaVuSans-97"/>
      <use transform="translate(821.484375 0.765625)" xlink:href="#DejaVuSans-103"/>
      <use transform="translate(884.960938 0.765625)" xlink:href="#DejaVuSans-101"/>
      <use transform="translate(946.484375 0.765625)" xlink:href="#DejaVuSans-32"/>
      <use transform="translate(978.271484 0.765625)" xlink:href="#DejaVuSans-Oblique-114"/>
      <use transform="translate(1024.034661 39.046875)scale(0.7)" xlink:href="#DejaVuSans-50"/>
      <use transform="translate(1071.305169 0.765625)" xlink:href="#DejaVuSans-44"/>
      <use transform="translate(1103.092279 0.765625)" xlink:href="#DejaVuSans-32"/>
      <use transform="translate(1134.879388 0.765625)" xlink:href="#DejaVuSans-78"/>
      <use transform="translate(1209.684076 0.765625)" xlink:href="#DejaVuSans-32"/>
      <use transform="translate(1241.471185 0.765625)" xlink:href="#DejaVuSans-61"/>
      <use transform="translate(1325.260247 0.765625)" xlink:href="#DejaVuSans-32"/>
      <use transform="translate(1357.047357 0.765625)" xlink:href="#DejaVuSans-50"/>
      <use transform="translate(1420.670404 0.765625)" xlink:href="#DejaVuSans-48"/>
      <use transform="translate(1484.293451 0.765625)" xlink:href="#DejaVuSans-48"/>
      <use transform="translate(1547.916497 0.765625)" xlink:href="#DejaVuSans-48"/>
     </g>
    </g>
    <g id="LineCollection_6">
     <path d="M 118 173.794375 
L 118 163.794375 
" style="fill:none;stroke:#008000;stroke-opacity:0.5;stroke-width:1.5;"/>
    </g>
    <g id="line2d_30">
     <path d="M 108 168.794375 
L 128 168.794375 
" style="fill:none;stroke:#008000;stroke-linecap:square;stroke-opacity:0.5;stroke-width:1.5;"/>
    </g>
    <g id="line2d_31"/>
    <g id="text_22">
     <!-- Simulated average $r^2$, N = 3000 -->
     <g transform="translate(136 172.294375)scale(0.1 -0.1)">
      <use transform="translate(0 0.765625)" xlink:href="#DejaVuSans-83"/>
      <use transform="translate(63.476562 0.765625)" xlink:href="#DejaVuSans-105"/>
      <use transform="translate(91.259766 0.765625)" xlink:href="#DejaVuSans-109"/>
      <use transform="translate(188.671875 0.765625)" xlink:href="#DejaVuSans-117"/>
      <use transform="translate(252.050781 0.765625)" xlink:href="#DejaVuSans-108"/>
      <use transform="translate(279.833984 0.765625)" xlink:href="#DejaVuSans-97"/>
      <use transform="translate(341.113281 0.765625)" xlink:href="#DejaVuSans-116"/>
      <use transform="translate(380.322266 0.765625)" xlink:href="#DejaVuSans-101"/>
      <use transform="translate(441.845703 0.765625)" xlink:href="#DejaVuSans-100"/>
      <use transform="translate(505.322266 0.765625)" xlink:href="#DejaVuSans-32"/>
      <use transform="translate(537.109375 0.765625)" xlink:href="#DejaVuSans-97"/>
      <use transform="translate(598.388672 0.765625)" xlink:href="#DejaVuSans-118"/>
      <use transform="translate(657.568359 0.765625)" xlink:href="#DejaVuSans-101"/>
      <use transform="translate(719.091797 0.765625)" xlink:href="#DejaVuSans-114"/>
      <use transform="translate(760.205078 0.765625)" xlink:href="#DejaVuSans-97"/>
      <use transform="translate(821.484375 0.765625)" xlink:href="#DejaVuSans-103"/>
      <use transform="translate(884.960938 0.765625)" xlink:href="#DejaVuSans-101"/>
      <use transform="translate(946.484375 0.765625)" xlink:href="#DejaVuSans-32"/>
      <use transform="translate(978.271484 0.765625)" xlink:href="#DejaVuSans-Oblique-114"/>
      <use transform="translate(1024.034661 39.046875)scale(0.7)" xlink:href="#DejaVuSans-50"/>
      <use transform="translate(1071.305169 0.765625)" xlink:href="#DejaVuSans-44"/>
      <use transform="translate(1103.092279 0.765625)" xlink:href="#DejaVuSans-32"/>
      <use transform="translate(1134.879388 0.765625)" xlink:href="#DejaVuSans-78"/>
      <use transform="translate(1209.684076 0.765625)" xlink:href="#DejaVuSans-32"/>
      <use transform="translate(1241.471185 0.765625)" xlink:href="#DejaVuSans-61"/>
      <use transform="translate(1325.260247 0.765625)" xlink:href="#DejaVuSans-32"/>
      <use transform="translate(1357.047357 0.765625)" xlink:href="#DejaVuSans-51"/>
      <use transform="translate(1420.670404 0.765625)" xlink:href="#DejaVuSans-48"/>
      <use transform="translate(1484.293451 0.765625)" xlink:href="#DejaVuSans-48"/>
      <use transform="translate(1547.916497 0.765625)" xlink:href="#DejaVuSans-48"/>
     </g>
    </g>
   </g>
  </g>
 </g>
 <defs>
  <clipPath id="p9c25eb33d2">
   <rect height="498.96" width="613.8" x="99" y="77.76"/>
  </clipPath>
 </defs>
</svg>
